<svg width="100" height="16" viewBox="0 0 100 16" fill="none" xmlns="http://www.w3.org/2000/svg">
<path d="M8.40001 15.38C7.33334 15.38 6.34 15.1867 5.42001 14.8C4.51334 14.4133 3.72 13.8733 3.04 13.18C2.36 12.4867 1.82667 11.6733 1.44 10.74C1.06667 9.80667 0.880005 8.78667 0.880005 7.68C0.880005 6.57333 1.06667 5.55333 1.44 4.62C1.81334 3.67333 2.34 2.86 3.02 2.18C3.7 1.48667 4.49334 0.953332 5.4 0.579999C6.32 0.193333 7.32001 0 8.40001 0C9.48001 0 10.4467 0.18 11.3 0.54C12.1667 0.9 12.9 1.38 13.5 1.98C14.1 2.58 14.5267 3.24667 14.78 3.98L12.04 5.3C11.7867 4.58 11.34 3.98667 10.7 3.52C10.0733 3.04 9.30667 2.8 8.40001 2.8C7.52001 2.8 6.74667 3.00667 6.08001 3.42C5.41334 3.83333 4.89334 4.40667 4.52001 5.14C4.16001 5.86 3.98001 6.70667 3.98001 7.68C3.98001 8.65333 4.16001 9.50667 4.52001 10.24C4.89334 10.9733 5.41334 11.5467 6.08001 11.96C6.74667 12.3733 7.52001 12.58 8.40001 12.58C9.30667 12.58 10.0733 12.3467 10.7 11.88C11.34 11.4 11.7867 10.8 12.04 10.08L14.78 11.4C14.5267 12.1333 14.1 12.8 13.5 13.4C12.9 14 12.1667 14.48 11.3 14.84C10.4467 15.2 9.48001 15.38 8.40001 15.38Z" fill="white"/>
<path d="M21.3739 15.38C20.2939 15.38 19.3072 15.1333 18.4139 14.64C17.5339 14.1467 16.8272 13.4733 16.2939 12.62C15.7739 11.7533 15.5139 10.7733 15.5139 9.68C15.5139 8.57333 15.7739 7.59333 16.2939 6.74C16.8272 5.88667 17.5339 5.21333 18.4139 4.72C19.3072 4.22667 20.2939 3.98 21.3739 3.98C22.4539 3.98 23.4339 4.22667 24.3139 4.72C25.1939 5.21333 25.8939 5.88667 26.4139 6.74C26.9472 7.59333 27.2139 8.57333 27.2139 9.68C27.2139 10.7733 26.9472 11.7533 26.4139 12.62C25.8939 13.4733 25.1939 14.1467 24.3139 14.64C23.4339 15.1333 22.4539 15.38 21.3739 15.38ZM21.3739 12.68C21.9206 12.68 22.3939 12.5533 22.7939 12.3C23.2072 12.0467 23.5272 11.6933 23.7539 11.24C23.9939 10.7867 24.1139 10.2667 24.1139 9.68C24.1139 9.09333 23.9939 8.58 23.7539 8.14C23.5272 7.68667 23.2072 7.33333 22.7939 7.08C22.3939 6.81333 21.9206 6.68 21.3739 6.68C20.8272 6.68 20.3472 6.81333 19.9339 7.08C19.5206 7.33333 19.1939 7.68667 18.9539 8.14C18.7272 8.58 18.6139 9.09333 18.6139 9.68C18.6139 10.2667 18.7272 10.7867 18.9539 11.24C19.1939 11.6933 19.5206 12.0467 19.9339 12.3C20.3472 12.5533 20.8272 12.68 21.3739 12.68Z" fill="white"/>
<path d="M28.5813 15.14V4.22H31.3813V6.38L31.2213 5.9C31.4746 5.24667 31.8813 4.76667 32.4413 4.46C33.0146 4.14 33.6813 3.98 34.4413 3.98C35.2679 3.98 35.9879 4.15333 36.6013 4.5C37.2279 4.84667 37.7146 5.33333 38.0613 5.96C38.4079 6.57333 38.5813 7.29333 38.5813 8.12V15.14H35.5813V8.76C35.5813 8.33333 35.4946 7.96667 35.3213 7.66C35.1613 7.35333 34.9279 7.11333 34.6213 6.94C34.3279 6.76667 33.9813 6.68 33.5813 6.68C33.1946 6.68 32.8479 6.76667 32.5413 6.94C32.2346 7.11333 31.9946 7.35333 31.8213 7.66C31.6613 7.96667 31.5813 8.33333 31.5813 8.76V15.14H28.5813Z" fill="white"/>
<path d="M45.4139 15.26C44.0939 15.26 43.0672 14.9067 42.3339 14.2C41.6139 13.48 41.2539 12.48 41.2539 11.2V6.82H39.4139V4.22H39.5139C40.0739 4.22 40.5006 4.08 40.7939 3.8C41.1006 3.52 41.2539 3.1 41.2539 2.54V1.74H44.2539V4.22H46.8139V6.82H44.2539V11C44.2539 11.3733 44.3206 11.6867 44.4539 11.94C44.5872 12.18 44.7939 12.36 45.0739 12.48C45.3539 12.6 45.7006 12.66 46.1139 12.66C46.2072 12.66 46.3139 12.6533 46.4339 12.64C46.5539 12.6267 46.6806 12.6133 46.8139 12.6V15.14C46.6139 15.1667 46.3872 15.1933 46.1339 15.22C45.8806 15.2467 45.6406 15.26 45.4139 15.26Z" fill="white"/>
<path d="M53.4319 15.38C52.2719 15.38 51.2652 15.1267 50.4119 14.62C49.5585 14.1 48.8985 13.4067 48.4319 12.54C47.9652 11.6733 47.7319 10.7133 47.7319 9.66C47.7319 8.56667 47.9719 7.59333 48.4519 6.74C48.9452 5.88667 49.6052 5.21333 50.4319 4.72C51.2585 4.22667 52.1919 3.98 53.2319 3.98C54.0985 3.98 54.8652 4.12 55.5319 4.4C56.1985 4.66667 56.7585 5.04667 57.2119 5.54C57.6785 6.03333 58.0319 6.60667 58.2719 7.26C58.5119 7.9 58.6319 8.6 58.6319 9.36C58.6319 9.57333 58.6185 9.78667 58.5919 10C58.5785 10.2 58.5452 10.3733 58.4919 10.52H50.3119V8.32H56.7919L55.3719 9.36C55.5052 8.78667 55.4985 8.28 55.3519 7.84C55.2052 7.38667 54.9452 7.03333 54.5719 6.78C54.2119 6.51333 53.7652 6.38 53.2319 6.38C52.7119 6.38 52.2652 6.50667 51.8919 6.76C51.5185 7.01333 51.2385 7.38667 51.0519 7.88C50.8652 8.37333 50.7919 8.97333 50.8319 9.68C50.7785 10.2933 50.8519 10.8333 51.0519 11.3C51.2519 11.7667 51.5585 12.1333 51.9719 12.4C52.3852 12.6533 52.8852 12.78 53.4719 12.78C54.0052 12.78 54.4585 12.6733 54.8319 12.46C55.2185 12.2467 55.5185 11.9533 55.7319 11.58L58.1319 12.72C57.9185 13.2533 57.5785 13.72 57.1119 14.12C56.6585 14.52 56.1185 14.8333 55.4919 15.06C54.8652 15.2733 54.1785 15.38 53.4319 15.38Z" fill="white"/>
<path d="M59.9984 15.14V4.22H62.7984V6.84L62.5984 6.46C62.8384 5.54 63.2318 4.92 63.7784 4.6C64.3384 4.26667 64.9984 4.1 65.7584 4.1H66.3984V6.7H65.4584C64.7251 6.7 64.1318 6.92667 63.6784 7.38C63.2251 7.82 62.9984 8.44667 62.9984 9.26V15.14H59.9984Z" fill="white"/>
<path d="M67.3133 15.14V4.22H70.1133V6.88L69.8133 6.44C69.9733 5.6 70.36 4.98 70.9733 4.58C71.5866 4.18 72.32 3.98 73.1733 3.98C74.08 3.98 74.8733 4.21333 75.5533 4.68C76.2466 5.13333 76.68 5.74667 76.8533 6.52L75.9933 6.6C76.3533 5.70667 76.8666 5.04667 77.5333 4.62C78.2 4.19333 78.98 3.98 79.8733 3.98C80.66 3.98 81.3533 4.15333 81.9533 4.5C82.5666 4.84667 83.0466 5.33333 83.3933 5.96C83.74 6.57333 83.9133 7.29333 83.9133 8.12V15.14H80.9133V8.76C80.9133 8.33333 80.8333 7.96667 80.6733 7.66C80.5266 7.35333 80.3133 7.11333 80.0333 6.94C79.7533 6.76667 79.4133 6.68 79.0133 6.68C78.6266 6.68 78.2866 6.76667 77.9933 6.94C77.7133 7.11333 77.4933 7.35333 77.3333 7.66C77.1866 7.96667 77.1133 8.33333 77.1133 8.76V15.14H74.1133V8.76C74.1133 8.33333 74.0333 7.96667 73.8733 7.66C73.7266 7.35333 73.5133 7.11333 73.2333 6.94C72.9533 6.76667 72.6133 6.68 72.2133 6.68C71.8266 6.68 71.4866 6.76667 71.1933 6.94C70.9133 7.11333 70.6933 7.35333 70.5333 7.66C70.3866 7.96667 70.3133 8.33333 70.3133 8.76V15.14H67.3133Z" fill="white"/>
<path d="M89.7675 15.38C88.5675 15.38 87.5208 15.1 86.6275 14.54C85.7475 13.9667 85.1475 13.2 84.8275 12.24L87.0275 11.2C87.3075 11.7867 87.6875 12.2467 88.1675 12.58C88.6475 12.9133 89.1808 13.08 89.7675 13.08C90.1942 13.08 90.5208 12.9933 90.7475 12.82C90.9742 12.6467 91.0875 12.4067 91.0875 12.1C91.0875 11.94 91.0475 11.8067 90.9675 11.7C90.8875 11.58 90.7675 11.4733 90.6075 11.38C90.4475 11.2867 90.2475 11.2067 90.0075 11.14L88.1475 10.62C87.2542 10.3667 86.5675 9.96 86.0875 9.4C85.6075 8.82667 85.3675 8.15333 85.3675 7.38C85.3675 6.7 85.5408 6.10667 85.8875 5.6C86.2342 5.09333 86.7208 4.7 87.3475 4.42C87.9742 4.12667 88.6942 3.98 89.5075 3.98C90.5742 3.98 91.5075 4.23333 92.3075 4.74C93.1208 5.23333 93.6942 5.93333 94.0275 6.84L91.8075 7.88C91.6475 7.42667 91.3542 7.06667 90.9275 6.8C90.5142 6.52 90.0408 6.38 89.5075 6.38C89.1208 6.38 88.8142 6.46 88.5875 6.62C88.3742 6.78 88.2675 7 88.2675 7.28C88.2675 7.42667 88.3075 7.56 88.3875 7.68C88.4675 7.8 88.5942 7.90667 88.7675 8C88.9542 8.09333 89.1808 8.18 89.4475 8.26L91.1875 8.78C92.0942 9.04667 92.7875 9.45333 93.2675 10C93.7475 10.5333 93.9875 11.1933 93.9875 11.98C93.9875 12.66 93.8075 13.2533 93.4475 13.76C93.1008 14.2667 92.6142 14.6667 91.9875 14.96C91.3608 15.24 90.6208 15.38 89.7675 15.38Z" fill="white"/>
<path d="M96.8605 15.14V12.14H99.8605V15.14H96.8605Z" fill="#F8FAFF"/>
</svg>
