<svg width="100" height="17" viewBox="0 0 100 17" fill="none" xmlns="http://www.w3.org/2000/svg">
<path d="M8.40001 16.2401C7.33334 16.2401 6.34 16.0468 5.42001 15.6601C4.51334 15.2734 3.72 14.7334 3.04 14.0401C2.36 13.3468 1.82667 12.5334 1.44 11.6001C1.06667 10.6668 0.880005 9.64677 0.880005 8.54011C0.880005 7.43344 1.06667 6.41344 1.44 5.48011C1.81334 4.53344 2.34 3.72011 3.02 3.04011C3.7 2.34677 4.49334 1.81344 5.4 1.44011C6.32 1.05344 7.32001 0.860107 8.40001 0.860107C9.48001 0.860107 10.4467 1.04011 11.3 1.40011C12.1667 1.76011 12.9 2.24011 13.5 2.84011C14.1 3.44011 14.5267 4.10677 14.78 4.84011L12.04 6.16011C11.7867 5.44011 11.34 4.84677 10.7 4.38011C10.0733 3.90011 9.30667 3.66011 8.40001 3.66011C7.52001 3.66011 6.74667 3.86677 6.08001 4.28011C5.41334 4.69344 4.89334 5.26677 4.52001 6.00011C4.16001 6.72011 3.98001 7.56677 3.98001 8.54011C3.98001 9.51344 4.16001 10.3668 4.52001 11.1001C4.89334 11.8334 5.41334 12.4068 6.08001 12.8201C6.74667 13.2334 7.52001 13.4401 8.40001 13.4401C9.30667 13.4401 10.0733 13.2068 10.7 12.7401C11.34 12.2601 11.7867 11.6601 12.04 10.9401L14.78 12.2601C14.5267 12.9934 14.1 13.6601 13.5 14.2601C12.9 14.8601 12.1667 15.3401 11.3 15.7001C10.4467 16.0601 9.48001 16.2401 8.40001 16.2401Z" fill="#2D66D3"/>
<path d="M21.3739 16.2401C20.2939 16.2401 19.3072 15.9934 18.4139 15.5001C17.5339 15.0068 16.8272 14.3334 16.2939 13.4801C15.7739 12.6134 15.5139 11.6334 15.5139 10.5401C15.5139 9.43344 15.7739 8.45344 16.2939 7.60011C16.8272 6.74677 17.5339 6.07344 18.4139 5.58011C19.3072 5.08677 20.2939 4.84011 21.3739 4.84011C22.4539 4.84011 23.4339 5.08677 24.3139 5.58011C25.1939 6.07344 25.8939 6.74677 26.4139 7.60011C26.9472 8.45344 27.2139 9.43344 27.2139 10.5401C27.2139 11.6334 26.9472 12.6134 26.4139 13.4801C25.8939 14.3334 25.1939 15.0068 24.3139 15.5001C23.4339 15.9934 22.4539 16.2401 21.3739 16.2401ZM21.3739 13.5401C21.9206 13.5401 22.3939 13.4134 22.7939 13.1601C23.2072 12.9068 23.5272 12.5534 23.7539 12.1001C23.9939 11.6468 24.1139 11.1268 24.1139 10.5401C24.1139 9.95344 23.9939 9.44011 23.7539 9.00011C23.5272 8.54677 23.2072 8.19344 22.7939 7.94011C22.3939 7.67344 21.9206 7.54011 21.3739 7.54011C20.8272 7.54011 20.3472 7.67344 19.9339 7.94011C19.5206 8.19344 19.1939 8.54677 18.9539 9.00011C18.7272 9.44011 18.6139 9.95344 18.6139 10.5401C18.6139 11.1268 18.7272 11.6468 18.9539 12.1001C19.1939 12.5534 19.5206 12.9068 19.9339 13.1601C20.3472 13.4134 20.8272 13.5401 21.3739 13.5401Z" fill="#2D66D3"/>
<path d="M28.5813 16.0001V5.08011H31.3813V7.24011L31.2213 6.76011C31.4746 6.10677 31.8813 5.62677 32.4413 5.32011C33.0146 5.00011 33.6813 4.84011 34.4413 4.84011C35.2679 4.84011 35.9879 5.01344 36.6013 5.36011C37.2279 5.70677 37.7146 6.19344 38.0613 6.82011C38.4079 7.43344 38.5813 8.15344 38.5813 8.98011V16.0001H35.5813V9.62011C35.5813 9.19344 35.4946 8.82677 35.3213 8.52011C35.1613 8.21344 34.9279 7.97344 34.6213 7.80011C34.3279 7.62677 33.9813 7.54011 33.5813 7.54011C33.1946 7.54011 32.8479 7.62677 32.5413 7.80011C32.2346 7.97344 31.9946 8.21344 31.8213 8.52011C31.6613 8.82677 31.5813 9.19344 31.5813 9.62011V16.0001H28.5813Z" fill="#2D66D3"/>
<path d="M45.4139 16.1201C44.0939 16.1201 43.0672 15.7668 42.3339 15.0601C41.6139 14.3401 41.2539 13.3401 41.2539 12.0601V7.68011H39.4139V5.08011H39.5139C40.0739 5.08011 40.5006 4.94011 40.7939 4.66011C41.1006 4.38011 41.2539 3.96011 41.2539 3.40011V2.60011H44.2539V5.08011H46.8139V7.68011H44.2539V11.8601C44.2539 12.2334 44.3206 12.5468 44.4539 12.8001C44.5872 13.0401 44.7939 13.2201 45.0739 13.3401C45.3539 13.4601 45.7006 13.5201 46.1139 13.5201C46.2072 13.5201 46.3139 13.5134 46.4339 13.5001C46.5539 13.4868 46.6806 13.4734 46.8139 13.4601V16.0001C46.6139 16.0268 46.3872 16.0534 46.1339 16.0801C45.8806 16.1068 45.6406 16.1201 45.4139 16.1201Z" fill="#2D66D3"/>
<path d="M53.4319 16.2401C52.2719 16.2401 51.2652 15.9868 50.4119 15.4801C49.5585 14.9601 48.8985 14.2668 48.4319 13.4001C47.9652 12.5334 47.7319 11.5734 47.7319 10.5201C47.7319 9.42678 47.9719 8.45344 48.4519 7.60011C48.9452 6.74677 49.6052 6.07344 50.4319 5.58011C51.2585 5.08677 52.1919 4.84011 53.2319 4.84011C54.0985 4.84011 54.8652 4.98011 55.5319 5.26011C56.1985 5.52677 56.7585 5.90677 57.2119 6.40011C57.6785 6.89344 58.0319 7.46677 58.2719 8.12011C58.5119 8.76011 58.6319 9.46011 58.6319 10.2201C58.6319 10.4334 58.6185 10.6468 58.5919 10.8601C58.5785 11.0601 58.5452 11.2334 58.4919 11.3801H50.3119V9.18011H56.7919L55.3719 10.2201C55.5052 9.64677 55.4985 9.14011 55.3519 8.70011C55.2052 8.24677 54.9452 7.89344 54.5719 7.64011C54.2119 7.37344 53.7652 7.24011 53.2319 7.24011C52.7119 7.24011 52.2652 7.36677 51.8919 7.62011C51.5185 7.87344 51.2385 8.24677 51.0519 8.74011C50.8652 9.23344 50.7919 9.83344 50.8319 10.5401C50.7785 11.1534 50.8519 11.6934 51.0519 12.1601C51.2519 12.6268 51.5585 12.9934 51.9719 13.2601C52.3852 13.5134 52.8852 13.6401 53.4719 13.6401C54.0052 13.6401 54.4585 13.5334 54.8319 13.3201C55.2185 13.1068 55.5185 12.8134 55.7319 12.4401L58.1319 13.5801C57.9185 14.1134 57.5785 14.5801 57.1119 14.9801C56.6585 15.3801 56.1185 15.6934 55.4919 15.9201C54.8652 16.1334 54.1785 16.2401 53.4319 16.2401Z" fill="#2D66D3"/>
<path d="M59.9984 16.0001V5.08011H62.7984V7.70011L62.5984 7.32011C62.8384 6.40011 63.2318 5.78011 63.7784 5.46011C64.3384 5.12677 64.9984 4.96011 65.7584 4.96011H66.3984V7.56011H65.4584C64.7251 7.56011 64.1318 7.78677 63.6784 8.24011C63.2251 8.68011 62.9984 9.30678 62.9984 10.1201V16.0001H59.9984Z" fill="#2D66D3"/>
<path d="M67.3133 16.0001V5.08011H70.1133V7.74011L69.8133 7.30011C69.9733 6.46011 70.36 5.84011 70.9733 5.44011C71.5866 5.04011 72.32 4.84011 73.1733 4.84011C74.08 4.84011 74.8733 5.07344 75.5533 5.54011C76.2466 5.99344 76.68 6.60677 76.8533 7.38011L75.9933 7.46011C76.3533 6.56677 76.8666 5.90677 77.5333 5.48011C78.2 5.05344 78.98 4.84011 79.8733 4.84011C80.66 4.84011 81.3533 5.01344 81.9533 5.36011C82.5666 5.70677 83.0466 6.19344 83.3933 6.82011C83.74 7.43344 83.9133 8.15344 83.9133 8.98011V16.0001H80.9133V9.62011C80.9133 9.19344 80.8333 8.82677 80.6733 8.52011C80.5266 8.21344 80.3133 7.97344 80.0333 7.80011C79.7533 7.62677 79.4133 7.54011 79.0133 7.54011C78.6266 7.54011 78.2866 7.62677 77.9933 7.80011C77.7133 7.97344 77.4933 8.21344 77.3333 8.52011C77.1866 8.82677 77.1133 9.19344 77.1133 9.62011V16.0001H74.1133V9.62011C74.1133 9.19344 74.0333 8.82677 73.8733 8.52011C73.7266 8.21344 73.5133 7.97344 73.2333 7.80011C72.9533 7.62677 72.6133 7.54011 72.2133 7.54011C71.8266 7.54011 71.4866 7.62677 71.1933 7.80011C70.9133 7.97344 70.6933 8.21344 70.5333 8.52011C70.3866 8.82677 70.3133 9.19344 70.3133 9.62011V16.0001H67.3133Z" fill="#2D66D3"/>
<path d="M89.7675 16.2401C88.5675 16.2401 87.5208 15.9601 86.6275 15.4001C85.7475 14.8268 85.1475 14.0601 84.8275 13.1001L87.0275 12.0601C87.3075 12.6468 87.6875 13.1068 88.1675 13.4401C88.6475 13.7734 89.1808 13.9401 89.7675 13.9401C90.1942 13.9401 90.5208 13.8534 90.7475 13.6801C90.9742 13.5068 91.0875 13.2668 91.0875 12.9601C91.0875 12.8001 91.0475 12.6668 90.9675 12.5601C90.8875 12.4401 90.7675 12.3334 90.6075 12.2401C90.4475 12.1468 90.2475 12.0668 90.0075 12.0001L88.1475 11.4801C87.2542 11.2268 86.5675 10.8201 86.0875 10.2601C85.6075 9.68677 85.3675 9.01344 85.3675 8.24011C85.3675 7.56011 85.5408 6.96677 85.8875 6.46011C86.2342 5.95344 86.7208 5.56011 87.3475 5.28011C87.9742 4.98677 88.6942 4.84011 89.5075 4.84011C90.5742 4.84011 91.5075 5.09344 92.3075 5.60011C93.1208 6.09344 93.6942 6.79344 94.0275 7.70011L91.8075 8.74011C91.6475 8.28677 91.3542 7.92677 90.9275 7.66011C90.5142 7.38011 90.0408 7.24011 89.5075 7.24011C89.1208 7.24011 88.8142 7.32011 88.5875 7.48011C88.3742 7.64011 88.2675 7.86011 88.2675 8.14011C88.2675 8.28677 88.3075 8.42011 88.3875 8.54011C88.4675 8.66011 88.5942 8.76677 88.7675 8.86011C88.9542 8.95344 89.1808 9.04011 89.4475 9.12011L91.1875 9.64011C92.0942 9.90677 92.7875 10.3134 93.2675 10.8601C93.7475 11.3934 93.9875 12.0534 93.9875 12.8401C93.9875 13.5201 93.8075 14.1134 93.4475 14.6201C93.1008 15.1268 92.6142 15.5268 91.9875 15.8201C91.3608 16.1001 90.6208 16.2401 89.7675 16.2401Z" fill="#2D66D3"/>
<path d="M96.8605 16.0001V13.0001H99.8605V16.0001H96.8605Z" fill="#141414"/>
</svg>
