<svg width="223" height="200" viewBox="0 0 223 200" fill="none" xmlns="http://www.w3.org/2000/svg">
<g clip-path="url(#clip0_67_1143)">
<g opacity="0.5">
<path opacity="0.02" d="M106.74 192.528C96.2394 198.591 77.5062 197.632 64.9834 190.405C52.4606 183.179 50.8059 172.379 61.2858 166.316L174.624 109.013C185.125 102.95 203.551 97.6217 216.074 104.848C228.597 112.075 210.579 130.019 200.099 136.062L106.719 192.528H106.74Z" fill="#585D85"/>
<path opacity="0.03" d="M108.579 190.834C98.2825 196.775 79.917 195.856 67.6598 188.772C55.4026 181.688 53.7887 171.093 64.1052 165.153L174.216 109.462C184.512 103.522 202.592 98.3567 214.849 105.44C227.106 112.524 209.721 129.999 199.405 135.94L108.579 190.834Z" fill="#585D85"/>
<path opacity="0.04" d="M110.397 189.16C100.284 194.998 82.3072 194.1 70.2951 187.18C58.283 180.259 56.7508 169.868 66.863 164.05L173.767 109.952C183.879 104.114 201.591 99.1528 213.582 106.073C225.574 112.994 208.802 130.019 198.69 135.838L110.397 189.16Z" fill="#585D85"/>
<path opacity="0.05" d="M112.235 187.466C102.307 193.182 84.6972 192.324 72.9711 185.567C61.2245 178.789 59.7537 168.623 69.6616 162.907L173.337 110.401C183.245 104.685 200.61 99.8877 212.336 106.665C224.082 113.443 207.923 129.999 197.995 135.715L112.235 187.466Z" fill="#585D85"/>
<path opacity="0.06" d="M114.053 185.792C104.329 191.406 87.0875 190.589 75.6065 183.954C64.1256 177.34 62.716 167.378 72.4401 161.764L172.888 110.871C182.612 105.257 199.609 100.643 211.069 107.278C222.55 113.892 207.004 129.999 197.28 135.613L114.053 185.792Z" fill="#585D85"/>
<path opacity="0.07" d="M115.892 184.097C106.352 189.589 89.4776 188.813 78.2622 182.342C67.0468 175.87 65.6781 166.133 75.2183 160.641L172.439 111.34C181.979 105.849 198.608 101.419 209.823 107.89C221.039 114.362 206.126 129.999 196.585 135.49L115.892 184.097Z" fill="#585D85"/>
<path opacity="0.08" d="M117.71 182.423C108.374 187.813 91.8677 187.057 80.9179 180.749C69.9681 174.441 68.6606 164.908 77.9966 159.518L171.989 111.83C181.325 106.441 197.607 102.195 208.557 108.523C219.506 114.831 205.206 130.019 195.87 135.409L117.71 182.444V182.423Z" fill="#585D85"/>
<path opacity="0.09" d="M119.549 180.729C110.397 186.016 94.2578 185.281 83.5736 179.116C72.8894 172.951 71.6432 163.642 80.7953 158.355L171.56 112.259C180.712 106.972 196.626 102.929 207.31 109.095C217.995 115.26 204.328 129.979 195.176 135.266L119.549 180.729Z" fill="#585D85"/>
<path opacity="0.1" d="M121.387 179.055C112.419 184.22 96.6686 183.546 86.2295 177.524C75.8108 171.501 74.6055 162.417 83.5737 157.252L171.111 112.769C180.059 107.604 195.625 103.726 206.044 109.748C216.463 115.77 203.409 130.019 194.461 135.184L121.387 179.075V179.055Z" fill="#585D85"/>
<path opacity="0.11" d="M123.205 177.36C114.441 182.423 99.038 181.77 88.8849 175.911C78.7318 170.052 77.5878 161.172 86.3517 156.109L170.682 113.218C179.445 108.156 194.644 104.481 204.797 110.34C214.951 116.199 202.53 129.999 193.766 135.062L123.226 177.381L123.205 177.36Z" fill="#585D85"/>
<path opacity="0.12" d="M125.044 175.686C116.464 180.627 101.449 180.014 91.5409 174.298C81.6534 168.582 80.5707 159.927 89.1508 154.966L170.253 113.688C178.833 108.748 193.664 105.236 203.552 110.952C213.439 116.668 201.631 129.999 193.051 134.939L125.044 175.686Z" fill="#585D85"/>
<path opacity="0.13" d="M126.862 173.992C118.486 178.83 103.819 178.238 94.1966 172.686C84.5542 167.133 83.5532 158.661 91.929 153.843L169.803 114.157C178.179 109.319 192.663 105.992 202.285 111.565C211.907 117.118 200.732 129.999 192.336 134.837L126.862 174.012V173.992Z" fill="#585D85"/>
<path opacity="0.14" d="M128.701 172.318C120.509 177.054 106.229 176.483 96.8523 171.093C87.4755 165.683 86.5154 157.436 94.7073 152.72L169.354 114.627C177.546 109.911 191.662 106.767 201.018 112.177C210.395 117.587 199.813 129.999 191.621 134.735L128.68 172.338L128.701 172.318Z" fill="#585D85"/>
<path opacity="0.15" d="M130.519 170.624C122.511 175.237 108.599 174.727 99.4878 169.46C90.3765 164.214 89.4777 156.17 97.4857 151.557L168.905 115.076C176.892 110.462 190.661 107.502 199.752 112.769C208.863 118.016 198.914 129.979 190.906 134.592L130.499 170.624H130.519Z" fill="#585D85"/>
<path opacity="0.15" d="M132.357 168.95C124.554 173.461 111.009 172.971 102.164 167.868C93.3181 162.764 92.4805 154.945 100.284 150.454L168.475 115.566C176.279 111.054 189.68 108.298 198.526 113.402C207.372 118.506 198.036 129.999 190.232 134.511L132.357 168.97V168.95Z" fill="#585D85"/>
<path opacity="0.16" d="M134.176 167.255C126.556 171.644 113.379 171.195 104.799 166.255C96.2192 161.294 95.4224 153.7 103.042 149.311L168.006 116.036C175.626 111.646 188.659 109.054 197.239 114.014C205.819 118.955 197.117 129.999 189.497 134.408L134.176 167.296V167.255Z" fill="#585D85"/>
<path opacity="0.17" d="M136.014 165.581C128.599 169.868 115.79 169.44 107.475 164.642C99.1607 159.845 98.4253 152.455 105.861 148.168L167.597 116.485C175.013 112.198 187.699 109.809 196.013 114.607C204.328 119.404 196.238 129.999 188.822 134.266L136.035 165.581H136.014Z" fill="#585D85"/>
<path opacity="0.18" d="M137.832 163.887C130.601 168.051 118.16 167.664 110.111 163.029C102.062 158.375 101.388 151.21 108.619 147.025L167.148 116.954C174.379 112.79 186.698 110.564 194.747 115.219C202.796 119.873 195.339 129.999 188.107 134.164L137.853 163.907L137.832 163.887Z" fill="#585D85"/>
<path opacity="0.19" d="M139.671 162.193C132.623 166.255 120.57 165.908 112.766 161.396C104.983 156.905 104.37 149.944 111.397 145.881L166.698 117.403C173.746 113.341 185.697 111.299 193.48 115.811C201.263 120.302 194.42 129.979 187.392 134.041L139.671 162.193Z" fill="#585D85"/>
<path opacity="0.2" d="M141.489 160.519C134.645 164.479 122.94 164.152 115.422 159.804C107.884 155.456 107.332 148.719 114.196 144.759L166.269 117.893C173.113 113.953 184.716 112.096 192.234 116.444C199.752 120.792 193.541 129.999 186.677 133.939L141.489 160.519Z" fill="#585D85"/>
<path opacity="0.21" d="M143.327 158.824C136.668 162.662 125.35 162.376 118.077 158.191C110.805 154.006 110.315 147.474 116.974 143.615L165.819 118.342C172.479 114.504 183.715 112.83 190.967 117.036C198.24 121.221 192.622 129.979 185.962 133.816L143.307 158.824H143.327Z" fill="#585D85"/>
<path opacity="0.22" d="M145.146 157.15C138.69 160.886 127.72 160.621 120.733 156.579C113.726 152.536 113.297 146.208 119.753 142.493L165.37 118.812C171.825 115.076 182.714 113.606 189.701 117.648C196.708 121.69 191.723 129.979 185.247 133.694L145.146 157.13V157.15Z" fill="#585D85"/>
<path opacity="0.23" d="M146.984 155.456C140.712 159.069 130.13 158.865 123.389 154.966C116.647 151.087 116.259 144.963 122.531 141.349L164.921 119.281C171.192 115.668 181.713 114.362 188.434 118.261C195.175 122.139 190.804 129.979 184.532 133.592L146.964 155.456H146.984Z" fill="#585D85"/>
<path opacity="0.24" d="M148.802 153.782C142.715 157.293 132.5 157.109 126.024 153.373C119.548 149.638 119.221 143.738 125.309 140.227L164.471 119.751C170.559 116.24 180.712 115.117 187.188 118.873C193.664 122.609 189.925 129.979 183.838 133.49L148.802 153.782Z" fill="#585D85"/>
<path opacity="0.25" d="M150.641 152.087C144.757 155.476 134.911 155.333 128.7 151.74C122.49 148.147 122.224 142.472 128.108 139.083L164.063 120.22C169.946 116.832 179.752 115.893 185.962 119.486C192.172 123.079 189.047 129.979 183.163 133.367L150.661 152.087H150.641Z" fill="#585D85"/>
<path opacity="0.26" d="M152.459 150.413C146.76 153.7 137.281 153.578 131.336 150.148C125.391 146.718 125.187 141.247 130.866 137.961L163.593 120.69C169.292 117.403 178.731 116.648 184.675 120.098C190.62 123.528 188.107 129.979 182.428 133.265L152.459 150.413Z" fill="#585D85"/>
<path opacity="0.27" d="M154.298 148.719C148.802 151.904 139.691 151.802 134.012 148.535C128.333 145.249 128.169 140.002 133.685 136.817L163.184 121.16C168.68 117.975 177.77 117.424 183.45 120.69C189.129 123.977 187.249 129.958 181.754 133.143L154.318 148.719H154.298Z" fill="#585D85"/>
<path opacity="0.28" d="M156.116 147.045C150.805 150.107 142.061 150.066 136.648 146.923C131.214 143.799 131.132 138.757 136.443 135.695L162.715 121.629C168.026 118.567 176.749 118.179 182.163 121.302C187.576 124.426 186.31 129.958 180.998 133.02L156.096 147.025L156.116 147.045Z" fill="#585D85"/>
<path opacity="0.29" d="M157.954 145.351C152.827 148.311 144.471 148.29 139.303 145.31C134.135 142.329 134.114 137.512 139.221 134.551L162.265 122.078C167.393 119.118 175.748 118.934 180.896 121.894C186.064 124.875 185.411 129.938 180.283 132.898L157.934 145.33L157.954 145.351Z" fill="#585D85"/>
<path opacity="0.3" d="M159.773 143.677C154.849 146.514 146.841 146.535 141.959 143.717C137.056 140.9 137.076 136.287 142.02 133.429L161.836 122.568C166.759 119.731 174.767 119.71 179.65 122.527C184.553 125.345 184.512 129.958 179.589 132.816L159.773 143.677Z" fill="#585D85"/>
</g>
<path d="M177.893 144.187L177.811 143.513C175.952 128.978 169.374 117.893 169.374 104.256V69.3069L146.106 55.8742L133.583 63.3255C133.583 63.3255 150.804 114.872 148.884 127.427C148.884 132.142 152.234 137.92 156.341 140.288L156.545 140.41L158.71 158.702L175.135 149.209C176.831 148.617 177.893 146.841 177.893 144.167V144.187Z" fill="url(#paint0_linear_67_1143)"/>
<path d="M152.255 158.926L138.159 150.801C134.033 148.433 130.703 142.656 130.703 137.94C132.623 125.385 133.563 112.116 133.563 98.2954V63.3459L156.831 76.7786V111.728C156.831 125.344 157.771 139.492 159.609 154.027L159.691 154.7C159.691 159.416 156.341 161.335 152.235 158.947L152.255 158.926Z" fill="url(#paint1_linear_67_1143)"/>
<path style="mix-blend-mode:color-dodge" d="M160.263 153.68C158.404 139.145 157.485 125.018 157.485 111.381V76.4316L134.216 62.9989V64.1829L156.259 76.9011V111.851C156.259 125.467 157.199 139.614 159.037 154.149L159.119 154.823C159.119 157.15 158.302 158.783 156.994 159.559C159.017 159.192 160.345 157.334 160.345 154.353L160.263 153.68Z" fill="url(#paint2_radial_67_1143)"/>
<path d="M149.089 109.789L147.107 125.916L151.438 123.426V108.38L149.089 109.789Z" fill="url(#paint3_linear_67_1143)"/>
<path d="M149.109 109.789L147.107 125.916L138.608 121.119L140.61 104.91L149.109 109.789Z" fill="url(#paint4_linear_67_1143)"/>
<path d="M140.61 104.91L149.109 109.789L151.438 108.38L142.919 103.521L140.61 104.91Z" fill="url(#paint5_linear_67_1143)"/>
<path style="mix-blend-mode:multiply" d="M152.255 158.926L138.159 150.801C134.033 148.433 130.703 142.656 130.703 137.94C132.623 125.385 133.563 112.116 133.563 98.2954V63.3459L156.831 76.7786V111.728C156.831 125.344 157.771 139.492 159.609 154.027L159.691 154.7C159.691 159.416 156.341 161.335 152.235 158.947L152.255 158.926Z" fill="url(#paint6_radial_67_1143)"/>
<path d="M203.94 48.1984C203.94 56.2213 201.182 61.8965 196.667 64.632C196.524 64.7137 173.174 78.473 173.031 78.5342C168.353 81.1473 171.335 75.2067 164.226 71.1238C149.926 62.8764 138.323 42.8907 138.323 26.4775C138.323 18.373 130.825 18.2913 135.422 15.5966C135.544 15.5149 159.814 1.63314 159.936 1.55149C164.594 -0.979902 170.988 -0.51037 178.016 3.5521C192.316 11.7995 203.919 31.7852 203.919 48.1984H203.94Z" fill="url(#paint7_linear_67_1143)"/>
<path d="M172.193 78.9042C182.245 73.0321 182.14 54.1636 171.959 36.7602C161.779 19.3569 145.377 10.0089 135.325 15.8811C125.273 21.7532 125.377 40.6217 135.558 58.025C145.739 75.4284 162.141 84.7763 172.193 78.9042Z" fill="url(#paint8_linear_67_1143)"/>
<path style="mix-blend-mode:color-dodge" d="M154.992 17.046C148.128 13.0856 141.898 12.5549 137.281 14.8617C141.591 13.6572 146.964 14.5555 152.766 17.9034C167.066 26.1509 178.669 46.1366 178.669 62.5498C178.669 71.083 175.523 76.9623 170.498 79.4733C176.831 77.6973 180.917 71.4096 180.917 61.6719C180.917 45.2587 169.313 25.273 155.013 17.0256L154.992 17.046Z" fill="url(#paint9_radial_67_1143)"/>
<path d="M175.646 63.9992C175.646 71.7771 172.949 77.2889 168.578 79.9632C168.557 79.9632 164.451 82.3517 158.629 85.7201C134.38 99.7856 125.31 124.732 111.786 155.517C111.745 155.599 111.724 155.66 111.724 155.66C102.511 160.804 28.5795 36.9705 37.6294 31.6423C37.6294 31.6423 37.6294 31.6423 37.6703 31.6423C70.0498 34.1329 96.0351 39.8285 119.508 26.355C127.128 21.9863 132.868 18.6996 132.909 18.6792C137.444 16.2294 143.634 16.6786 150.478 20.6185C164.369 28.6414 175.646 48.0555 175.646 63.9992Z" fill="url(#paint10_linear_67_1143)"/>
<g style="mix-blend-mode:color-dodge" opacity="0.4">
<path d="M192.254 57.9157C187.515 62.7743 182.837 66.7143 179.037 69.1844C179.017 69.1844 175.523 71.4504 170.6 74.6147C150.028 87.8432 143.777 97.9892 121.04 141.309C120.999 141.39 108.068 127.896 108.068 127.896C100.366 132.816 86.5152 96.6418 132.991 70.2256L134.359 71.083C146.474 67.4288 152.602 63.6113 172.418 50.8931C178.853 46.7694 183.715 43.646 183.736 43.646C187.474 41.2779 196.504 42.3599 197.505 43.5643C199.507 46.0141 201.938 47.9739 192.234 57.9361L192.254 57.9157Z" fill="url(#paint11_radial_67_1143)"/>
</g>
<path d="M118.895 131.081C118.895 147.821 113.114 159.682 103.717 165.418C103.431 165.581 94.687 171.134 94.401 171.297C84.6157 176.768 90.8669 164.356 76.0356 155.803C46.1484 138.573 21.9403 96.8051 21.9403 62.5498C21.9403 45.6058 6.27148 45.4629 15.873 39.8081C16.1386 39.6448 26.7615 33.8063 27.0475 33.6634C36.792 28.3964 50.132 29.3559 64.8202 37.8279C94.7075 55.0577 118.915 96.8255 118.915 131.081H118.895Z" fill="url(#paint12_linear_67_1143)"/>
<path d="M92.5897 171.997C113.59 159.729 113.378 120.321 92.1162 83.9765C70.8547 47.6319 36.5951 28.1137 15.5951 40.3814C-5.40487 52.6491 -5.19289 92.0572 16.0686 128.402C37.3301 164.746 71.5897 184.265 92.5897 171.997Z" fill="url(#paint13_linear_67_1143)"/>
<path d="M90.0845 167.714C109.711 156.249 109.507 119.408 89.6296 85.4291C69.7518 51.4498 37.7272 33.1986 18.1006 44.664C-1.52603 56.1294 -1.32237 92.9697 18.5555 126.949C38.4333 160.928 70.4579 179.18 90.0845 167.714Z" fill="url(#paint14_linear_67_1143)"/>
<path d="M64.044 160.008C36.1179 143.901 13.4625 104.848 13.4625 72.8182C13.4625 58.0586 18.2836 47.3614 26.21 41.6862C12.5432 44.1768 3.51367 56.7725 3.51367 76.9827C3.51367 109.013 26.1691 148.045 54.0952 164.173C69.1512 172.869 82.675 173.094 91.9292 166.48C83.9416 167.929 74.3401 165.949 64.044 160.008Z" fill="url(#paint15_linear_67_1143)"/>
<path style="mix-blend-mode:color-dodge" d="M55.6887 42.7682C41.3682 34.5003 26.5369 35.0515 19.6729 38.2974C28.7023 35.766 41.4499 37.2971 53.5845 44.2993C83.4718 61.529 107.68 103.297 107.68 137.552C107.68 155.394 99.5492 168.031 89.0284 173.278C100.06 169.195 109.784 156.374 109.784 136.021C109.784 101.766 85.5555 59.9979 55.6887 42.7682Z" fill="url(#paint16_radial_67_1143)"/>
<path style="mix-blend-mode:multiply" d="M90.0845 167.714C109.711 156.249 109.507 119.408 89.6296 85.4291C69.7518 51.4498 37.7272 33.1986 18.1006 44.664C-1.52603 56.1294 -1.32237 92.9697 18.5555 126.949C38.4333 160.928 70.4579 179.18 90.0845 167.714Z" fill="url(#paint17_radial_67_1143)"/>
<path d="M82.6136 74.3493C79.5697 76.8399 58.8958 93.743 58.855 93.7634C57.3841 94.6208 59.7947 94.6412 59.7947 97.2339C59.7947 102.48 63.4923 108.87 68.0683 111.504C70.3359 112.81 69.3758 114.709 70.8875 113.872C70.9283 113.851 92.4602 105.624 98.3233 103.379C94.5848 93.1714 89.1712 83.1887 82.634 74.3085L82.6136 74.3493Z" fill="url(#paint18_linear_67_1143)"/>
<path d="M72.9711 108.727C72.9711 113.974 69.2735 116.076 64.6975 113.443C60.1214 110.809 56.4238 104.42 56.4238 99.1732C56.4238 93.9267 60.1214 91.824 64.6975 94.4575C69.2735 97.091 72.9711 103.481 72.9711 108.727Z" fill="url(#paint19_linear_67_1143)"/>
<path d="M70.3973 107.216C70.3973 110.83 67.8437 112.279 64.6977 110.462C61.5516 108.645 58.998 104.256 58.998 100.663C58.998 97.0705 61.5516 95.6007 64.6977 97.4176C67.8437 99.2345 70.3973 103.624 70.3973 107.216Z" fill="url(#paint20_linear_67_1143)"/>
<path style="mix-blend-mode:screen" d="M65.106 94.2533C62.9202 92.9876 60.9181 92.8243 59.4473 93.5593C60.8364 93.1714 62.532 93.4572 64.391 94.5392C68.9671 97.1726 72.6647 103.562 72.6647 108.809C72.6647 111.544 71.6636 113.422 70.0498 114.219C72.0722 113.647 73.3797 111.646 73.3797 108.523C73.3797 103.277 69.6821 96.8868 65.106 94.2533Z" fill="url(#paint21_radial_67_1143)"/>
<path style="mix-blend-mode:color-dodge" d="M57.4047 138.818C72.2564 150.556 80.1623 165.275 75.0755 171.685C69.9888 178.095 53.8501 173.767 38.9984 162.029C24.1467 150.291 16.2408 135.572 21.3276 129.162C26.4143 122.752 42.553 127.08 57.4047 138.818Z" fill="url(#paint22_radial_67_1143)"/>
<path style="mix-blend-mode:color-dodge" d="M157.648 26.4775C161.264 35.7865 139.528 52.8937 109.11 64.6933C78.6912 76.4928 51.092 78.5138 47.4966 69.2253C43.8807 59.9163 65.6169 42.809 96.0352 31.0095C126.454 19.21 154.053 17.1889 157.648 26.4775Z" fill="url(#paint23_radial_67_1143)"/>
</g>
<defs>
<linearGradient id="paint0_linear_67_1143" x1="181.693" y1="145.024" x2="145.593" y2="81.5134" gradientUnits="userSpaceOnUse">
<stop stop-color="#CDD2F3"/>
<stop offset="0.04" stop-color="white"/>
<stop offset="0.17" stop-color="#EBEEFF"/>
<stop offset="0.2" stop-color="#E5E9FF"/>
<stop offset="0.35" stop-color="#DADFFA"/>
<stop offset="0.59" stop-color="#BFC5ED"/>
<stop offset="0.72" stop-color="#AFB6E5"/>
<stop offset="0.91" stop-color="#AFB6E5"/>
<stop offset="1" stop-color="#AFB6E5"/>
</linearGradient>
<linearGradient id="paint1_linear_67_1143" x1="165.983" y1="145.432" x2="128.106" y2="83.5529" gradientUnits="userSpaceOnUse">
<stop stop-color="#E5E9FF"/>
<stop offset="0.23" stop-color="#DADFFA"/>
<stop offset="0.62" stop-color="#BFC5ED"/>
<stop offset="0.82" stop-color="#AFB6E5"/>
</linearGradient>
<radialGradient id="paint2_radial_67_1143" cx="0" cy="0" r="1" gradientUnits="userSpaceOnUse" gradientTransform="translate(179.425 127.753) scale(33.7278 33.7042)">
<stop stop-color="white"/>
<stop offset="1"/>
</radialGradient>
<linearGradient id="paint3_linear_67_1143" x1="146.76" y1="117.893" x2="163.673" y2="112.824" gradientUnits="userSpaceOnUse">
<stop offset="0.04" stop-color="#5277F7"/>
<stop offset="0.27" stop-color="#5586F8"/>
<stop offset="0.71" stop-color="#5FAEFC"/>
<stop offset="1" stop-color="#66CCFF"/>
</linearGradient>
<linearGradient id="paint4_linear_67_1143" x1="123.961" y1="119.873" x2="164.611" y2="110.756" gradientUnits="userSpaceOnUse">
<stop offset="0.04" stop-color="#5277F7"/>
<stop offset="0.27" stop-color="#5586F8"/>
<stop offset="0.71" stop-color="#5FAEFC"/>
<stop offset="1" stop-color="#66CCFF"/>
</linearGradient>
<linearGradient id="paint5_linear_67_1143" x1="148.557" y1="101.807" x2="145.659" y2="107.341" gradientUnits="userSpaceOnUse">
<stop offset="0.04" stop-color="#5277F7"/>
<stop offset="0.27" stop-color="#5586F8"/>
<stop offset="0.71" stop-color="#5FAEFC"/>
<stop offset="1" stop-color="#66CCFF"/>
</linearGradient>
<radialGradient id="paint6_radial_67_1143" cx="0" cy="0" r="1" gradientUnits="userSpaceOnUse" gradientTransform="translate(142.674 78.6159) scale(36.0567 36.0314)">
<stop stop-color="#AFB6E5"/>
<stop offset="1" stop-color="white"/>
</radialGradient>
<linearGradient id="paint7_linear_67_1143" x1="152.725" y1="5.47105" x2="189.417" y2="69.0638" gradientUnits="userSpaceOnUse">
<stop offset="0.03" stop-color="#588FF9"/>
<stop offset="0.14" stop-color="#5DA5FB"/>
<stop offset="0.3" stop-color="#66CCFF"/>
<stop offset="0.64" stop-color="#5277F7"/>
<stop offset="0.88" stop-color="#588FF9"/>
<stop offset="0.97" stop-color="#5277F7"/>
</linearGradient>
<linearGradient id="paint8_linear_67_1143" x1="82.0107" y1="63.4589" x2="228.679" y2="30.5478" gradientUnits="userSpaceOnUse">
<stop offset="0.04" stop-color="#5277F7"/>
<stop offset="0.27" stop-color="#5586F8"/>
<stop offset="0.71" stop-color="#5FAEFC"/>
<stop offset="1" stop-color="#66CCFF"/>
</linearGradient>
<radialGradient id="paint9_radial_67_1143" cx="0" cy="0" r="1" gradientUnits="userSpaceOnUse" gradientTransform="translate(159.078 46.504) scale(27.9874 27.9677)">
<stop stop-color="white"/>
<stop offset="1"/>
</radialGradient>
<linearGradient id="paint10_linear_67_1143" x1="91.2752" y1="22.2109" x2="144.824" y2="115.027" gradientUnits="userSpaceOnUse">
<stop stop-color="#CDD2F3"/>
<stop offset="0.2" stop-color="#E5E9FF"/>
<stop offset="0.28" stop-color="#EFF1FF"/>
<stop offset="0.35" stop-color="white"/>
<stop offset="0.46" stop-color="#EBEDF8"/>
<stop offset="0.68" stop-color="#B8BEE8"/>
<stop offset="0.72" stop-color="#AFB6E5"/>
<stop offset="0.91" stop-color="#AFB6E5"/>
<stop offset="1" stop-color="#AFB6E5"/>
</linearGradient>
<radialGradient id="paint11_radial_67_1143" cx="0" cy="0" r="1" gradientUnits="userSpaceOnUse" gradientTransform="translate(-16900.5 6508.48) rotate(-20.3269) scale(50.9161 35.5263)">
<stop stop-color="#5176F6"/>
<stop offset="0.12" stop-color="#3E5BBD"/>
<stop offset="0.24" stop-color="#2E438B"/>
<stop offset="0.36" stop-color="#202E60"/>
<stop offset="0.49" stop-color="#141D3D"/>
<stop offset="0.61" stop-color="#0B1022"/>
<stop offset="0.74" stop-color="#05070F"/>
<stop offset="0.87" stop-color="#010103"/>
<stop offset="1"/>
</radialGradient>
<linearGradient id="paint12_linear_67_1143" x1="31.6848" y1="29.7846" x2="109.192" y2="164.138" gradientUnits="userSpaceOnUse">
<stop offset="0.03" stop-color="#588FF9"/>
<stop offset="0.14" stop-color="#5DA5FB"/>
<stop offset="0.3" stop-color="#66CCFF"/>
<stop offset="0.64" stop-color="#5277F7"/>
<stop offset="0.88" stop-color="#588FF9"/>
<stop offset="0.97" stop-color="#5277F7"/>
</linearGradient>
<linearGradient id="paint13_linear_67_1143" x1="-95.7748" y1="139.759" x2="210.615" y2="71.0341" gradientUnits="userSpaceOnUse">
<stop offset="0.04" stop-color="#5277F7"/>
<stop offset="0.27" stop-color="#5586F8"/>
<stop offset="0.71" stop-color="#5FAEFC"/>
<stop offset="1" stop-color="#66CCFF"/>
</linearGradient>
<linearGradient id="paint14_linear_67_1143" x1="88.5538" y1="165.808" x2="17.8018" y2="43.1763" gradientUnits="userSpaceOnUse">
<stop stop-color="#CDD2F3"/>
<stop offset="0.2" stop-color="#E5E9FF"/>
<stop offset="0.28" stop-color="#EFF1FF"/>
<stop offset="0.35" stop-color="white"/>
<stop offset="0.46" stop-color="#EBEDF8"/>
<stop offset="0.68" stop-color="#B8BEE8"/>
<stop offset="0.72" stop-color="#AFB6E5"/>
<stop offset="0.91" stop-color="#AFB6E5"/>
<stop offset="1" stop-color="#AFB6E5"/>
</linearGradient>
<linearGradient id="paint15_linear_67_1143" x1="75.1776" y1="175.686" x2="4.7726" y2="53.6676" gradientUnits="userSpaceOnUse">
<stop offset="0.03" stop-color="#588FF9"/>
<stop offset="0.14" stop-color="#5DA5FB"/>
<stop offset="0.3" stop-color="#66CCFF"/>
<stop offset="0.64" stop-color="#5277F7"/>
<stop offset="0.88" stop-color="#588FF9"/>
<stop offset="0.97" stop-color="#5277F7"/>
</linearGradient>
<radialGradient id="paint16_radial_67_1143" cx="0" cy="0" r="1" gradientUnits="userSpaceOnUse" gradientTransform="translate(64.7386 104.685) scale(58.0584 58.0178)">
<stop stop-color="white"/>
<stop offset="1"/>
</radialGradient>
<radialGradient id="paint17_radial_67_1143" cx="0" cy="0" r="1" gradientUnits="userSpaceOnUse" gradientTransform="translate(105.326 80.5776) scale(83.7169 83.6583)">
<stop stop-color="#AFB6E5"/>
<stop offset="1" stop-color="white"/>
</radialGradient>
<linearGradient id="paint18_linear_67_1143" x1="68.7425" y1="82.2497" x2="84.5373" y2="110.778" gradientUnits="userSpaceOnUse">
<stop offset="0.12" stop-color="#361CAC"/>
<stop offset="0.35" stop-color="#3830BD"/>
<stop offset="0.52" stop-color="#3C26AD"/>
<stop offset="0.85" stop-color="#480C84"/>
<stop offset="1" stop-color="#4E0070"/>
</linearGradient>
<linearGradient id="paint19_linear_67_1143" x1="56.4238" y1="103.95" x2="72.9711" y2="103.95" gradientUnits="userSpaceOnUse">
<stop stop-color="#273B98"/>
<stop offset="0.23" stop-color="#2E2BA2"/>
<stop offset="0.4" stop-color="#361CAC"/>
<stop offset="0.77" stop-color="#440B88"/>
<stop offset="1" stop-color="#4E0070"/>
</linearGradient>
<linearGradient id="paint20_linear_67_1143" x1="59.0185" y1="103.95" x2="70.3973" y2="103.95" gradientUnits="userSpaceOnUse">
<stop stop-color="#836DF3"/>
<stop offset="0.05" stop-color="#8B6DF3"/>
<stop offset="0.22" stop-color="#A56DF3"/>
<stop offset="0.37" stop-color="#B56DF3"/>
<stop offset="0.49" stop-color="#BB6DF3"/>
<stop offset="1" stop-color="#F36DD4"/>
</linearGradient>
<radialGradient id="paint21_radial_67_1143" cx="0" cy="0" r="1" gradientUnits="userSpaceOnUse" gradientTransform="translate(66.4135 103.664) scale(8.94778 8.94151)">
<stop stop-color="white"/>
<stop offset="1"/>
</radialGradient>
<radialGradient id="paint22_radial_67_1143" cx="0" cy="0" r="1" gradientUnits="userSpaceOnUse" gradientTransform="translate(51.1212 151.365) rotate(-51.6005) scale(14.8365 34.2436)">
<stop stop-color="#62C5F6"/>
<stop offset="0.07" stop-color="#4B97BD"/>
<stop offset="0.14" stop-color="#376F8B"/>
<stop offset="0.21" stop-color="#264D60"/>
<stop offset="0.27" stop-color="#18313D"/>
<stop offset="0.34" stop-color="#0D1B22"/>
<stop offset="0.41" stop-color="#060C0F"/>
<stop offset="0.48" stop-color="#010303"/>
<stop offset="0.55"/>
</radialGradient>
<radialGradient id="paint23_radial_67_1143" cx="0" cy="0" r="1" gradientUnits="userSpaceOnUse" gradientTransform="translate(106.01 45.638) rotate(-21.2065) scale(59.1218 18.0692)">
<stop stop-color="#62C5F6"/>
<stop offset="0.07" stop-color="#4B97BD"/>
<stop offset="0.14" stop-color="#376F8B"/>
<stop offset="0.21" stop-color="#264D60"/>
<stop offset="0.27" stop-color="#18313D"/>
<stop offset="0.34" stop-color="#0D1B22"/>
<stop offset="0.41" stop-color="#060C0F"/>
<stop offset="0.48" stop-color="#010303"/>
<stop offset="0.55"/>
</radialGradient>
<clipPath id="clip0_67_1143">
<rect width="223" height="200" fill="white"/>
</clipPath>
</defs>
</svg>
