<svg width="772" height="584" viewBox="0 0 772 584" fill="none" xmlns="http://www.w3.org/2000/svg">
<g clip-path="url(#clip0_5_5354)">
<g opacity="0.27">
<path opacity="0.27" fill-rule="evenodd" clip-rule="evenodd" d="M537.595 20.8357L83.3997 48.7052L86.0558 31.8508L540.517 3.11858L537.595 20.8357Z" fill="#3D3182"/>
<path opacity="0.27" fill-rule="evenodd" clip-rule="evenodd" d="M421.59 178.365L60.6904 194.49L63.2801 177.768L424.445 160.914L421.59 178.365Z" fill="#7A72A9"/>
<path opacity="0.27" fill-rule="evenodd" clip-rule="evenodd" d="M379.159 62.2421L154.186 75.2479L156.842 58.2607L381.948 44.8568L379.159 62.2421Z" fill="#7A72A9"/>
<path opacity="0.27" fill-rule="evenodd" clip-rule="evenodd" d="M429.16 59.3223L397.419 61.1803L400.275 43.7286L432.015 41.8043L429.16 59.3223Z" fill="#7A72A9"/>
<path opacity="0.27" fill-rule="evenodd" clip-rule="evenodd" d="M560.372 79.561L527.702 81.3526L530.557 63.6355L563.294 61.8439L560.372 79.561Z" fill="#7A72A9"/>
<path opacity="0.27" fill-rule="evenodd" clip-rule="evenodd" d="M555.727 107.629L523.124 109.288L525.979 91.6377L558.649 89.846L555.727 107.629Z" fill="#7A72A9"/>
<path opacity="0.27" fill-rule="evenodd" clip-rule="evenodd" d="M510.174 82.3479L149.938 102.056L152.661 85.0685L513.096 64.6308L510.174 82.3479Z" fill="#7A72A9"/>
<path opacity="0.27" fill-rule="evenodd" clip-rule="evenodd" d="M505.659 110.218L145.756 128.864L148.412 111.876L508.515 92.5668L505.659 110.218Z" fill="#7A72A9"/>
<path opacity="0.27" fill-rule="evenodd" clip-rule="evenodd" d="M456.983 142.865L425.044 144.391L427.899 126.939L459.839 125.28L456.983 142.865Z" fill="#7A72A9"/>
<path opacity="0.27" fill-rule="evenodd" clip-rule="evenodd" d="M586.802 17.8498L553.932 19.8405L556.854 2.05704L589.724 0L586.802 17.8498Z" fill="#7A72A9"/>
<path opacity="0.27" fill-rule="evenodd" clip-rule="evenodd" d="M717.813 341.601L34.9917 359.318L37.5814 342.663L720.801 323.685L717.813 341.601Z" fill="#7A72A9"/>
<path opacity="0.27" fill-rule="evenodd" clip-rule="evenodd" d="M768.946 340.274L734.815 341.203L737.804 323.154L772.001 322.225L768.946 340.274Z" fill="#7A72A9"/>
<path opacity="0.27" fill-rule="evenodd" clip-rule="evenodd" d="M469.533 176.175L437.527 177.635L440.382 160.117L472.455 158.657L469.533 176.175Z" fill="#7A72A9"/>
<path opacity="0.27" fill-rule="evenodd" clip-rule="evenodd" d="M508.179 200.263L56.8384 219.174L59.4281 202.453L511.034 182.612L508.179 200.263Z" fill="#7A72A9"/>
<path opacity="0.27" fill-rule="evenodd" clip-rule="evenodd" d="M557.056 198.206L524.453 199.599L527.308 181.948L559.978 180.489L557.056 198.206Z" fill="#7A72A9"/>
<path opacity="0.27" fill-rule="evenodd" clip-rule="evenodd" d="M415.349 144.855L141.171 158.127L143.827 141.206L418.138 127.404L415.349 144.855Z" fill="#3D3182"/>
<path opacity="0.27" fill-rule="evenodd" clip-rule="evenodd" d="M350.938 237.29L127.359 245.849L130.015 228.995L353.727 219.971L350.938 237.29Z" fill="#7A72A9"/>
<path opacity="0.27" fill-rule="evenodd" clip-rule="evenodd" d="M400.674 235.365L369.133 236.56L371.922 219.241L403.463 217.914L400.674 235.365Z" fill="#7A72A9"/>
<path opacity="0.27" fill-rule="evenodd" clip-rule="evenodd" d="M530.959 258.059L498.488 259.187L501.41 241.602L533.881 240.408L530.959 258.059Z" fill="#7A72A9"/>
<path opacity="0.27" fill-rule="evenodd" clip-rule="evenodd" d="M526.374 285.928L493.969 286.924L496.825 269.406L529.296 268.278L526.374 285.928Z" fill="#7A72A9"/>
<path opacity="0.27" fill-rule="evenodd" clip-rule="evenodd" d="M481.154 259.784L123.176 272.525L125.832 255.67L484.01 242.266L481.154 259.784Z" fill="#3D3182"/>
<path opacity="0.27" fill-rule="evenodd" clip-rule="evenodd" d="M476.639 287.521L118.993 299.133L121.65 282.279L479.495 270.003L476.639 287.521Z" fill="#7A72A9"/>
<path opacity="0.27" fill-rule="evenodd" clip-rule="evenodd" d="M428.297 319.107L396.557 320.036L399.346 302.65L431.086 301.655L428.297 319.107Z" fill="#7A72A9"/>
<path opacity="0.27" fill-rule="evenodd" clip-rule="evenodd" d="M386.866 320.301L114.415 328.263L117.071 311.475L389.721 302.982L386.866 320.301Z" fill="#7A72A9"/>
<path opacity="0.27" fill-rule="evenodd" clip-rule="evenodd" d="M383.343 413.797L25.4978 420.565L28.0875 403.91L386.198 396.478L383.343 413.797Z" fill="#7A72A9"/>
<path opacity="0.27" fill-rule="evenodd" clip-rule="evenodd" d="M418.471 379.358L386.797 380.088L389.586 362.769L421.326 361.972L418.471 379.358Z" fill="#7A72A9"/>
<path opacity="0.27" fill-rule="evenodd" clip-rule="evenodd" d="M677.044 584H0L2.58971 567.477L680.032 566.15L677.044 584Z" fill="#7A72A9"/>
<path opacity="0.27" fill-rule="evenodd" clip-rule="evenodd" d="M727.71 584H693.845L696.899 566.15L730.765 566.084L727.71 584Z" fill="#7A72A9"/>
<path opacity="0.27" fill-rule="evenodd" clip-rule="evenodd" d="M430.957 412.934L399.15 413.531L402.005 396.146L433.812 395.482L430.957 412.934Z" fill="#3D3182"/>
<path opacity="0.27" fill-rule="evenodd" clip-rule="evenodd" d="M469.202 437.817L21.646 444.984L24.2357 428.395L472.123 420.366L469.202 437.817Z" fill="#7A72A9"/>
<path opacity="0.27" fill-rule="evenodd" clip-rule="evenodd" d="M517.676 437.087L485.338 437.552L488.193 420.1L520.598 419.503L517.676 437.087Z" fill="#7A72A9"/>
<path opacity="0.27" fill-rule="evenodd" clip-rule="evenodd" d="M377.166 380.287L105.247 386.458L107.903 369.67L379.955 362.968L377.166 380.287Z" fill="#3D3182"/>
<path opacity="0.27" fill-rule="evenodd" clip-rule="evenodd" d="M313.355 470.597L91.5698 473.451L94.2259 456.729L316.078 453.477L313.355 470.597Z" fill="#7A72A9"/>
<path opacity="0.27" fill-rule="evenodd" clip-rule="evenodd" d="M362.628 470L331.353 470.398L334.141 453.212L365.417 452.748L362.628 470Z" fill="#7A72A9"/>
<path opacity="0.27" fill-rule="evenodd" clip-rule="evenodd" d="M491.845 495.945L459.639 496.277L462.494 478.826L494.7 478.494L491.845 495.945Z" fill="#7A72A9"/>
<path opacity="0.27" fill-rule="evenodd" clip-rule="evenodd" d="M487.265 523.55L455.126 523.815L457.981 506.363L490.186 506.098L487.265 523.55Z" fill="#7A72A9"/>
<path opacity="0.27" fill-rule="evenodd" clip-rule="evenodd" d="M442.442 496.41L87.4521 499.86L90.0419 483.139L445.297 479.025L442.442 496.41Z" fill="#7A72A9"/>
<path opacity="0.27" fill-rule="evenodd" clip-rule="evenodd" d="M437.927 523.881L83.2695 526.27L85.9256 509.549L440.783 506.496L437.927 523.881Z" fill="#3D3182"/>
<path opacity="0.27" fill-rule="evenodd" clip-rule="evenodd" d="M389.985 554.14L358.51 554.206L361.299 537.02L392.841 536.821L389.985 554.14Z" fill="#7A72A9"/>
<path opacity="0.27" fill-rule="evenodd" clip-rule="evenodd" d="M348.949 554.272L78.7556 555.135L81.4117 538.48L351.738 537.02L348.949 554.272Z" fill="#7A72A9"/>
</g>
</g>
<defs>
<clipPath id="clip0_5_5354">
<rect width="772" height="584" fill="white"/>
</clipPath>
</defs>
</svg>
