<svg width="301" height="118" viewBox="0 0 301 118" fill="none" xmlns="http://www.w3.org/2000/svg">
<g clip-path="url(#clip0_67_1315)">
<path d="M301 30.989C301 30.1929 300.587 29.8096 299.761 29.8096H283.303C282.665 29.8096 282.044 30.0165 281.533 30.3993C280.845 30.967 280.213 31.5988 279.645 32.2864L266.638 48.5917L258.645 32.4338C258.321 31.8017 257.956 31.191 257.553 30.6057C257.38 30.3848 257.154 30.2101 256.897 30.097C256.64 29.9838 256.359 29.9358 256.079 29.957H229.533L231.656 19.8141C231.943 17.7707 232.722 15.8277 233.928 14.1529C235.053 13.2874 236.468 12.8864 237.88 13.0325H241.862L244.339 2.40542e-05H237.261C234.113 -0.130883 230.96 -0.0520814 227.822 0.235906C225.207 0.584315 222.695 1.47838 220.448 2.86009C218.131 4.43849 216.229 6.55243 214.903 9.02251C213.186 12.3437 212.049 15.9335 211.541 19.6372L209.741 28.1879L204.255 58.2334L197.029 97.6257C196.835 98.7522 196.569 99.8651 196.233 100.958C196.009 101.684 195.571 102.326 194.976 102.799C194.382 103.273 193.658 103.556 192.9 103.611H186.794L184.169 117.941H192.044C194.821 117.941 197.593 117.714 200.332 117.263C202.983 116.877 205.519 115.921 207.765 114.462C210.076 112.88 211.985 110.78 213.34 108.329C215.132 104.97 216.339 101.331 216.909 97.5667L226.849 44.2279H239.06C240.653 44.1463 242.229 44.592 243.543 45.4958C243.926 45.8956 244.272 46.3299 244.575 46.7931L252.628 62.4203L225.138 95.1489C224.826 95.5104 224.649 95.9689 224.637 96.4463C224.637 97.1539 225.02 97.5078 225.757 97.5078H242.216C242.846 97.5131 243.463 97.3281 243.986 96.977C244.696 96.4578 245.331 95.8426 245.873 95.1489L260.621 76.7207L269.469 95.031C269.763 95.7041 270.14 96.338 270.59 96.9181C270.77 97.1282 270.998 97.2917 271.255 97.3944C271.512 97.4971 271.79 97.536 272.065 97.5078H289.762C289.982 97.517 290.202 97.4737 290.402 97.3814C290.602 97.2891 290.777 97.1505 290.913 96.977C291.204 96.6306 291.361 96.1911 291.355 95.7387C291.393 95.5043 291.393 95.2654 291.355 95.031L274.602 63.2459L300.499 32.4338C300.67 32.2659 300.803 32.0632 300.89 31.8394C300.976 31.6156 301.014 31.3759 301 31.1365" fill="#70BBE7"/>
<path d="M45.2752 51.5992C45.4689 48.5725 45.0459 45.538 44.0319 42.6795C43.0179 39.821 41.434 37.1981 39.3762 34.9695C37.0757 32.8933 34.3807 31.3012 31.4518 30.2881C28.5229 29.275 25.42 28.8616 22.3278 29.0725C18.8076 29.0607 15.2902 29.2774 11.798 29.7211C8.82311 30.1129 5.86983 30.6541 2.9494 31.3428C2.0515 31.4846 1.20699 31.861 0.50129 32.4338C0.167753 32.852 -0.00955638 33.3733 -0.00013098 33.908V95.6502C0.00367917 95.8868 0.0583252 96.1198 0.160104 96.3335C0.261883 96.5472 0.408417 96.7365 0.589776 96.8886C0.968839 97.1799 1.43956 97.3263 1.91707 97.3013H12.9778C13.2184 97.3026 13.4569 97.2563 13.6796 97.1653C13.9023 97.0742 14.1049 96.9401 14.2756 96.7706C14.5649 96.4675 14.7328 96.0688 14.7475 95.6502V80.4063C16.1043 80.5832 17.4611 80.7306 18.8474 80.8486C20.2337 80.9665 21.3545 81.0255 22.2689 81.0255C29.9966 81.0255 35.7777 78.991 39.5531 74.9515C43.5113 70.4016 45.5424 64.4902 45.2162 58.4693L45.2752 51.5992ZM30.5276 58.5282C30.5396 59.9527 30.4112 61.3749 30.1441 62.7741C29.9524 63.987 29.5213 65.1497 28.8758 66.1944C28.2624 67.162 27.4088 67.9543 26.3982 68.4942C25.1441 69.0792 23.7701 69.362 22.3868 69.3198C21.2955 69.3198 20.0272 69.3198 18.6409 69.1429L14.7475 68.7891V41.2794C15.6029 41.2794 16.6942 41.073 18.0215 40.9845C19.3488 40.896 20.7351 40.9845 22.2689 40.9845C23.6498 40.9331 25.0236 41.2058 26.2802 41.7806C27.2941 42.2891 28.1506 43.0637 28.7578 44.0215C29.3934 45.0497 29.824 46.1911 30.0261 47.3828C30.2973 48.8014 30.4258 50.2435 30.4096 51.6877L30.5276 58.5282ZM80.6696 39.2744V30.8416C80.6642 30.6081 80.6117 30.3782 80.5154 30.1654C80.4192 29.9527 80.281 29.7614 80.1092 29.6032C79.9385 29.4337 79.7359 29.2996 79.5132 29.2085C79.2905 29.1175 79.052 29.0712 78.8114 29.0725C76.5932 29.0727 74.3904 29.4414 72.293 30.1634C70.1613 30.8717 68.1663 31.9387 66.3939 33.3183V31.5492C66.3957 31.3146 66.3465 31.0823 66.2497 30.8685C66.153 30.6547 66.011 30.4644 65.8335 30.3108C65.6682 30.1423 65.4708 30.0085 65.253 29.9173C65.0352 29.8262 64.8013 29.7795 64.5652 29.7801H53.7109C53.4703 29.7789 53.2318 29.8251 53.0091 29.9162C52.7864 30.0073 52.5839 30.1414 52.4131 30.3108C52.2476 30.4661 52.1152 30.6532 52.0239 30.861C51.9327 31.0688 51.8845 31.2928 51.8822 31.5197V78.4013C51.8817 78.6429 51.9343 78.8817 52.0363 79.1007C52.1382 79.3198 52.287 79.5138 52.4721 79.6692C52.6428 79.8489 52.8488 79.9915 53.0772 80.0879C53.3056 80.1843 53.5515 80.2325 53.7994 80.2294H64.8896C65.129 80.2335 65.3664 80.1855 65.5854 80.0888C65.8044 79.992 65.9998 79.8489 66.1579 79.6692C66.3333 79.5075 66.4735 79.3115 66.5699 79.0934C66.6663 78.8753 66.7168 78.6397 66.7183 78.4013V44.0215C68.4821 43.1404 70.3173 42.4105 72.2045 41.8396C74.2537 41.2367 76.3805 40.9387 78.5165 40.955H79.2539C79.4527 40.9608 79.6495 40.9149 79.8253 40.8219C80.0011 40.7288 80.1497 40.5919 80.2567 40.4243C80.4968 40.088 80.6303 39.6874 80.6401 39.2744M100.933 14.094C100.924 13.8522 100.861 13.6155 100.749 13.4013C100.637 13.187 100.478 13.0005 100.284 12.8556C100.121 12.6842 99.9239 12.5486 99.7056 12.4572C99.4873 12.3659 99.2524 12.3208 99.0157 12.3248H87.2176C86.977 12.3236 86.7385 12.3698 86.5158 12.4609C86.2931 12.552 86.0906 12.6861 85.9198 12.8556C85.752 13.0153 85.6185 13.2074 85.5272 13.4203C85.436 13.6332 85.3889 13.8624 85.3889 14.094V22.2909C85.3889 22.5225 85.436 22.7516 85.5272 22.9645C85.6185 23.1774 85.752 23.3695 85.9198 23.5292C86.0906 23.6987 86.2931 23.8328 86.5158 23.9239C86.7385 24.015 86.977 24.0612 87.2176 24.06H99.0157C99.2481 24.0717 99.4805 24.0359 99.6986 23.9548C99.9166 23.8737 100.116 23.7489 100.284 23.5882C100.462 23.4346 100.604 23.2443 100.7 23.0305C100.797 22.8167 100.846 22.5845 100.844 22.3498L100.933 14.094ZM100.579 31.5197C100.571 31.291 100.518 31.0661 100.421 30.8585C100.325 30.6508 100.188 30.4646 100.019 30.3108C99.8533 30.1423 99.6559 30.0085 99.4381 29.9173C99.2203 29.8262 98.9864 29.7795 98.7503 29.7801H87.5421C87.3059 29.7795 87.0721 29.8262 86.8542 29.9173C86.6364 30.0085 86.4391 30.1423 86.2738 30.3108C86.0985 30.4599 85.9577 30.6452 85.861 30.8539C85.7642 31.0626 85.7139 31.2897 85.7133 31.5197V78.4898C85.7119 78.7201 85.7613 78.9479 85.8582 79.1569C85.9551 79.3659 86.097 79.5509 86.2738 79.6987C86.4391 79.8672 86.6364 80.001 86.8542 80.0922C87.0721 80.1833 87.3059 80.23 87.5421 80.2294H98.7208C98.9634 80.2187 99.2012 80.1582 99.4194 80.0517C99.6376 79.9451 99.8315 79.7949 99.9891 79.6102C100.161 79.4587 100.3 79.2729 100.397 79.0648C100.493 78.8566 100.545 78.6307 100.55 78.4013L100.579 31.5197ZM142.256 77.6937V69.8506C142.266 69.6418 142.226 69.4336 142.139 69.2436C142.052 69.0537 141.92 68.8876 141.755 68.7596C141.404 68.4791 140.965 68.3327 140.516 68.3468H140.339L135.442 68.7891C133.869 68.907 131.775 68.966 129.16 68.966C128.157 68.9805 127.159 68.8209 126.21 68.4942C125.283 68.1636 124.466 67.5817 123.851 66.8136C123.099 65.8735 122.547 64.7899 122.229 63.6292C121.804 62.0332 121.606 60.3857 121.639 58.7346V51.3633C121.606 49.7123 121.804 48.0648 122.229 46.4688C122.556 45.3057 123.118 44.2219 123.88 43.2844C124.496 42.5163 125.313 41.9344 126.24 41.6037C127.192 41.2914 128.188 41.1322 129.189 41.1319C131.824 41.1319 133.919 41.1909 135.472 41.3088L140.368 41.7511H140.545C140.994 41.7652 141.433 41.6189 141.784 41.3383C141.949 41.2103 142.081 41.0443 142.169 40.8543C142.256 40.6644 142.296 40.4561 142.285 40.2474V32.4338C142.312 32.1893 142.286 31.942 142.21 31.7082C142.133 31.4744 142.008 31.2594 141.843 31.0775C141.403 30.7593 140.9 30.5382 140.368 30.4288C139.07 30.1339 137.419 29.8391 135.384 29.5442C132.998 29.2275 130.593 29.0797 128.187 29.1019C125.351 28.9591 122.515 29.3895 119.849 30.3672C117.184 31.345 114.743 32.8501 112.672 34.7926C110.609 37.0054 109.021 39.6173 108.006 42.4673C106.992 45.3173 106.572 48.3449 106.773 51.3633V58.7346C106.572 61.753 106.992 64.7806 108.006 67.6306C109.021 70.4806 110.609 73.0926 112.672 75.3053C114.733 77.2551 117.167 78.7671 119.829 79.7503C122.49 80.7334 125.323 81.1672 128.157 81.0255C130.564 81.0477 132.968 80.8999 135.354 80.5832C137.389 80.2884 139.041 79.9935 140.339 79.6987C140.871 79.5893 141.373 79.3682 141.814 79.05C141.979 78.868 142.104 78.653 142.18 78.4192C142.256 78.1854 142.282 77.9381 142.256 77.6937ZM191.307 52.2184C191.33 49.084 190.842 45.9668 189.861 42.9895C188.981 40.2783 187.533 37.7856 185.614 35.6772C183.648 33.5541 181.228 31.9013 178.535 30.8416C175.401 29.6052 172.052 29.0038 168.684 29.0725C165.358 29.0122 162.049 29.5618 158.921 30.6942C156.184 31.6728 153.703 33.2542 151.661 35.3213C149.619 37.3884 148.068 39.8882 147.123 42.6357C146.06 45.7171 145.542 48.9595 145.589 52.2184V58.4103C145.433 62.0632 146.077 65.706 147.477 69.084C148.663 71.8121 150.483 74.2179 152.786 76.1014C154.959 77.8683 157.482 79.1546 160.189 79.8756C162.867 80.6331 165.636 81.02 168.418 81.0255C171.808 81.0574 175.197 80.8802 178.565 80.4947C181.463 80.1276 184.339 79.5961 187.177 78.9025C187.776 78.829 188.329 78.5472 188.741 78.1064C189.006 77.6195 189.129 77.0677 189.095 76.5142V69.7621C189.095 68.8186 188.534 68.3468 187.354 68.3468H187.089C186.175 68.3468 185.024 68.5827 183.608 68.6417C182.193 68.7006 180.659 68.8186 179.096 68.8776L174.199 69.0545H169.51C168.032 69.1116 166.557 68.8709 165.174 68.3468C164.035 67.8982 163.023 67.1798 162.224 66.2534C161.498 65.394 160.964 64.3884 160.661 63.3048C160.366 62.1285 160.218 60.9203 160.219 59.7076V59.5307H189.36C190.658 59.5307 191.307 58.8231 191.307 57.4373V52.2184ZM176.972 50.6557H160.189V50.3018C159.991 47.6599 160.815 45.0427 162.49 42.9895C163.267 42.1588 164.216 41.507 165.27 41.0793C166.324 40.6517 167.459 40.4583 168.595 40.5127C169.718 40.4516 170.841 40.6362 171.886 41.0538C172.93 41.4714 173.871 42.1119 174.642 42.9305C176.263 45.03 177.041 47.6587 176.824 50.3018L176.972 50.6557Z" fill="#404142"/>
</g>
<defs>
<clipPath id="clip0_67_1315">
<rect width="301" height="118" fill="white"/>
</clipPath>
</defs>
</svg>
