<svg width="302" height="119" viewBox="0 0 302 119" fill="none" xmlns="http://www.w3.org/2000/svg">
<path d="M301 31.0503C301 30.2542 300.587 29.8709 299.761 29.8709H283.303C282.665 29.8709 282.044 30.0778 281.533 30.4606C280.845 31.0283 280.213 31.6601 279.645 32.3477L266.638 48.653L258.645 32.4951C258.321 31.8629 257.956 31.2523 257.553 30.667C257.38 30.4461 257.154 30.2714 256.897 30.1582C256.64 30.0451 256.359 29.997 256.079 30.0183H229.533L231.656 19.8754C231.943 17.832 232.722 15.889 233.928 14.2142C235.053 13.3487 236.468 12.9476 237.88 13.0938H241.862L244.339 0.0613034H237.261C234.113 -0.0696038 230.96 0.00919786 227.822 0.297185C225.207 0.645594 222.695 1.53966 220.448 2.92137C218.131 4.49977 216.229 6.61371 214.903 9.08379C213.186 12.405 212.049 15.9947 211.541 19.6985L209.741 28.2492L204.255 58.2947L197.029 97.687C196.835 98.8135 196.569 99.9264 196.233 101.019C196.009 101.745 195.571 102.387 194.976 102.861C194.382 103.334 193.658 103.617 192.9 103.672H186.794L184.169 118.002H192.044C194.821 118.002 197.593 117.776 200.332 117.324C202.983 116.938 205.519 115.982 207.765 114.523C210.076 112.941 211.985 110.841 213.34 108.39C215.132 105.031 216.339 101.392 216.909 97.628L226.849 44.2892H239.06C240.653 44.2076 242.229 44.6532 243.543 45.5571C243.926 45.9569 244.272 46.3912 244.575 46.8544L252.628 62.4816L225.138 95.2102C224.826 95.5717 224.649 96.0302 224.637 96.5076C224.637 97.2152 225.02 97.569 225.757 97.569H242.216C242.846 97.5744 243.463 97.3894 243.986 97.0383C244.696 96.5191 245.331 95.9038 245.873 95.2102L260.621 76.7819L269.469 95.0923C269.763 95.7654 270.14 96.3993 270.59 96.9793C270.77 97.1895 270.998 97.353 271.255 97.4557C271.512 97.5584 271.79 97.5973 272.065 97.569H289.762C289.982 97.5783 290.202 97.535 290.402 97.4427C290.602 97.3504 290.777 97.2118 290.913 97.0383C291.204 96.6919 291.361 96.2524 291.355 95.7999C291.393 95.5656 291.393 95.3266 291.355 95.0923L274.602 63.3072L300.499 32.4951C300.67 32.3271 300.803 32.1245 300.89 31.9007C300.976 31.6769 301.014 31.4372 301 31.1977" fill="#70BBE7"/>
<path d="M45.2752 51.6605C45.4689 48.6338 45.0459 45.5993 44.0319 42.7408C43.0179 39.8824 41.434 37.2594 39.3762 35.0308C37.0757 32.9546 34.3807 31.3626 31.4518 30.3494C28.5229 29.3363 25.42 28.9229 22.3278 29.1338C18.8076 29.122 15.2902 29.3387 11.798 29.7824C8.82311 30.1742 5.86983 30.7154 2.9494 31.4041C2.0515 31.5459 1.20699 31.9223 0.50129 32.4951C0.167753 32.9133 -0.00955638 33.4346 -0.00013098 33.9694V95.7115C0.00367917 95.9481 0.0583252 96.1811 0.160104 96.3948C0.261883 96.6085 0.408417 96.7978 0.589776 96.9499C0.968839 97.2412 1.43956 97.3876 1.91707 97.3627H12.9778C13.2184 97.3639 13.4569 97.3176 13.6796 97.2266C13.9023 97.1355 14.1049 97.0014 14.2756 96.8319C14.5649 96.5288 14.7328 96.1301 14.7475 95.7115V80.4676C16.1043 80.6445 17.4611 80.7919 18.8474 80.9099C20.2337 81.0278 21.3545 81.0868 22.2689 81.0868C29.9966 81.0868 35.7777 79.0523 39.5531 75.0128C43.5113 70.4629 45.5424 64.5515 45.2162 58.5306L45.2752 51.6605ZM30.5276 58.5895C30.5396 60.014 30.4112 61.4362 30.1441 62.8354C29.9524 64.0483 29.5213 65.211 28.8758 66.2557C28.2624 67.2233 27.4088 68.0156 26.3982 68.5556C25.1441 69.1406 23.7701 69.4233 22.3868 69.3811C21.2955 69.3811 20.0272 69.3812 18.6409 69.2042L14.7475 68.8504V41.3407C15.6029 41.3407 16.6942 41.1343 18.0215 41.0458C19.3488 40.9574 20.7351 41.0458 22.2689 41.0458C23.6498 40.9944 25.0236 41.2671 26.2802 41.8419C27.2941 42.3504 28.1506 43.125 28.7578 44.0828C29.3934 45.111 29.824 46.2524 30.0261 47.4441C30.2973 48.8627 30.4258 50.3048 30.4096 51.749L30.5276 58.5895ZM80.6696 39.3357V30.9029C80.6642 30.6694 80.6117 30.4395 80.5154 30.2267C80.4192 30.014 80.281 29.8228 80.1092 29.6645C79.9385 29.495 79.7359 29.3609 79.5132 29.2699C79.2905 29.1788 79.052 29.1325 78.8114 29.1338C76.5932 29.134 74.3904 29.5027 72.293 30.2247C70.1613 30.933 68.1663 32 66.3939 33.3796V31.6105C66.3957 31.3759 66.3465 31.1436 66.2497 30.9298C66.153 30.716 66.011 30.5257 65.8335 30.3722C65.6682 30.2036 65.4708 30.0698 65.253 29.9786C65.0352 29.8875 64.8013 29.8408 64.5652 29.8414H53.7109C53.4703 29.8402 53.2318 29.8864 53.0091 29.9775C52.7864 30.0686 52.5839 30.2027 52.4131 30.3722C52.2476 30.5274 52.1152 30.7145 52.0239 30.9223C51.9327 31.1301 51.8845 31.3542 51.8822 31.581V78.4626C51.8817 78.7042 51.9343 78.943 52.0363 79.162C52.1382 79.3811 52.287 79.5752 52.4721 79.7305C52.6428 79.9102 52.8488 80.0528 53.0772 80.1492C53.3056 80.2456 53.5515 80.2938 53.7994 80.2907H64.8896C65.129 80.2948 65.3664 80.2468 65.5854 80.1501C65.8044 80.0533 65.9998 79.9102 66.1579 79.7305C66.3333 79.5688 66.4735 79.3729 66.5699 79.1547C66.6663 78.9366 66.7168 78.7011 66.7183 78.4626V44.0828C68.4821 43.2017 70.3173 42.4718 72.2045 41.9009C74.2537 41.298 76.3805 41 78.5165 41.0163H79.2539C79.4527 41.0221 79.6495 40.9762 79.8253 40.8832C80.0011 40.7902 80.1497 40.6532 80.2567 40.4856C80.4968 40.1493 80.6303 39.7487 80.6401 39.3357M100.933 14.1553C100.924 13.9135 100.861 13.6769 100.749 13.4626C100.637 13.2483 100.478 13.0619 100.284 12.9169C100.121 12.7455 99.9239 12.6099 99.7056 12.5185C99.4873 12.4272 99.2524 12.3821 99.0157 12.3861H87.2176C86.977 12.3849 86.7385 12.4312 86.5158 12.5222C86.2931 12.6133 86.0906 12.7474 85.9198 12.9169C85.752 13.0766 85.6185 13.2687 85.5272 13.4816C85.436 13.6945 85.3889 13.9237 85.3889 14.1553V22.3522C85.3889 22.5838 85.436 22.8129 85.5272 23.0258C85.6185 23.2387 85.752 23.4308 85.9198 23.5905C86.0906 23.76 86.2931 23.8941 86.5158 23.9852C86.7385 24.0763 86.977 24.1225 87.2176 24.1213H99.0157C99.2481 24.133 99.4805 24.0972 99.6986 24.0161C99.9166 23.935 100.116 23.8102 100.284 23.6495C100.462 23.4959 100.604 23.3057 100.7 23.0918C100.797 22.878 100.846 22.6458 100.844 22.4111L100.933 14.1553ZM100.579 31.581C100.571 31.3523 100.518 31.1275 100.421 30.9198C100.325 30.7121 100.188 30.5259 100.019 30.3722C99.8533 30.2036 99.6559 30.0698 99.4381 29.9786C99.2203 29.8875 98.9864 29.8408 98.7503 29.8414H87.5421C87.3059 29.8408 87.0721 29.8875 86.8542 29.9786C86.6364 30.0698 86.4391 30.2036 86.2738 30.3722C86.0985 30.5212 85.9577 30.7065 85.861 30.9152C85.7642 31.1239 85.7139 31.351 85.7133 31.581V78.5511C85.7119 78.7814 85.7613 79.0092 85.8582 79.2182C85.9551 79.4272 86.097 79.6122 86.2738 79.76C86.4391 79.9285 86.6364 80.0623 86.8542 80.1535C87.0721 80.2446 87.3059 80.2913 87.5421 80.2907H98.7208C98.9634 80.28 99.2012 80.2195 99.4194 80.113C99.6376 80.0064 99.8315 79.8562 99.9891 79.6715C100.161 79.52 100.3 79.3342 100.397 79.1261C100.493 78.9179 100.545 78.692 100.55 78.4626L100.579 31.581ZM142.256 77.755V69.9119C142.266 69.7031 142.226 69.4949 142.139 69.3049C142.052 69.115 141.92 68.9489 141.755 68.8209C141.404 68.5404 140.965 68.394 140.516 68.4081H140.339L135.442 68.8504C133.869 68.9684 131.775 69.0273 129.16 69.0273C128.157 69.0418 127.159 68.8822 126.21 68.5556C125.283 68.2249 124.466 67.643 123.851 66.8749C123.099 65.9348 122.547 64.8512 122.229 63.6905C121.804 62.0945 121.606 60.447 121.639 58.7959V51.4246C121.606 49.7736 121.804 48.1261 122.229 46.5301C122.556 45.367 123.118 44.2832 123.88 43.3457C124.496 42.5776 125.313 41.9957 126.24 41.665C127.192 41.3527 128.188 41.1935 129.189 41.1932C131.824 41.1932 133.919 41.2522 135.472 41.3702L140.368 41.8124H140.545C140.994 41.8265 141.433 41.6802 141.784 41.3996C141.949 41.2716 142.081 41.1056 142.169 40.9156C142.256 40.7257 142.296 40.5175 142.285 40.3087V32.4951C142.312 32.2506 142.286 32.0033 142.21 31.7695C142.133 31.5357 142.008 31.3207 141.843 31.1388C141.403 30.8206 140.9 30.5995 140.368 30.4901C139.07 30.1952 137.419 29.9004 135.384 29.6055C132.998 29.2888 130.593 29.141 128.187 29.1633C125.351 29.0204 122.515 29.4508 119.849 30.4286C117.184 31.4063 114.743 32.9114 112.672 34.8539C110.609 37.0667 109.021 39.6786 108.006 42.5286C106.992 45.3786 106.572 48.4062 106.773 51.4246V58.7959C106.572 61.8143 106.992 64.8419 108.006 67.6919C109.021 70.5419 110.609 73.1539 112.672 75.3667C114.733 77.3164 117.167 78.8284 119.829 79.8116C122.49 80.7947 125.323 81.2285 128.157 81.0868C130.564 81.109 132.968 80.9612 135.354 80.6445C137.389 80.3497 139.041 80.0548 140.339 79.76C140.871 79.6506 141.373 79.4295 141.814 79.1113C141.979 78.9293 142.104 78.7143 142.18 78.4805C142.256 78.2468 142.282 77.9995 142.256 77.755ZM191.307 52.2797C191.33 49.1453 190.842 46.0281 189.861 43.0508C188.981 40.3396 187.533 37.8469 185.614 35.7385C183.648 33.6154 181.228 31.9626 178.535 30.9029C175.401 29.6665 172.052 29.0651 168.684 29.1338C165.358 29.0735 162.049 29.6232 158.921 30.7555C156.184 31.7341 153.703 33.3155 151.661 35.3826C149.619 37.4497 148.068 39.9495 147.123 42.697C146.06 45.7784 145.542 49.0208 145.589 52.2797V58.4716C145.433 62.1245 146.077 65.7674 147.477 69.1453C148.663 71.8734 150.483 74.2792 152.786 76.1628C154.959 77.9296 157.482 79.2159 160.189 79.9369C162.867 80.6944 165.636 81.0813 168.418 81.0868C171.808 81.1187 175.197 80.9415 178.565 80.5561C181.463 80.189 184.339 79.6574 187.177 78.9639C187.776 78.8903 188.329 78.6085 188.741 78.1678C189.006 77.6808 189.129 77.129 189.095 76.5756V69.8234C189.095 68.8799 188.534 68.4081 187.354 68.4081H187.089C186.175 68.4081 185.024 68.644 183.608 68.703C182.193 68.762 180.659 68.8799 179.096 68.9389L174.199 69.1158H169.51C168.032 69.1729 166.557 68.9322 165.174 68.4081C164.035 67.9595 163.023 67.2411 162.224 66.3147C161.498 65.4553 160.964 64.4497 160.661 63.3662C160.366 62.1898 160.218 60.9816 160.219 59.769V59.592H189.36C190.658 59.592 191.307 58.8844 191.307 57.4986V52.2797ZM176.972 50.717H160.189V50.3632C159.991 47.7212 160.815 45.104 162.49 43.0508C163.267 42.2201 164.216 41.5683 165.27 41.1407C166.324 40.713 167.459 40.5196 168.595 40.574C169.718 40.5129 170.841 40.6975 171.886 41.1151C172.93 41.5327 173.871 42.1732 174.642 42.9918C176.263 45.0913 177.041 47.72 176.824 50.3632L176.972 50.717Z" fill="white"/>
</svg>
