<?xml version="1.0" encoding="utf-8"?>
<!-- Generator: Adobe Illustrator 23.1.0, SVG Export Plug-In . SVG Version: 6.00 Build 0)  -->
<svg version="1.1" id="Vrstva_1" xmlns="http://www.w3.org/2000/svg" xmlns:xlink="http://www.w3.org/1999/xlink" x="0px" y="0px"
	 viewBox="0 0 116.64 130.97" style="enable-background:new 0 0 116.64 130.97;" xml:space="preserve">
<style type="text/css">
	.st0{opacity:0.95;}
	.st1{fill:#E5E9FF;}
	.st2{fill:url(#SVGID_1_);}
	.st3{fill:#AFB6E5;}
	.st4{fill:#FFFFFF;}
	.st5{fill:url(#SVGID_2_);}
	.st6{fill:url(#SVGID_3_);}
</style>
<g class="st0">
	<polygon class="st1" points="17.83,66.53 13.49,68.98 30.77,78.81 35.12,76.35 	"/>
	<g>
		<linearGradient id="SVGID_1_" gradientUnits="userSpaceOnUse" x1="49.1183" y1="10.7342" x2="11.858" y2="109.8467">
			<stop  offset="0" style="stop-color:#00C7C5"/>
			<stop  offset="0.3301" style="stop-color:#2D9BE0"/>
			<stop  offset="0.6313" style="stop-color:#5277F7"/>
			<stop  offset="0.6913" style="stop-color:#5B76F7"/>
			<stop  offset="0.7887" style="stop-color:#7374F6"/>
			<stop  offset="0.9106" style="stop-color:#9A70F4"/>
			<stop  offset="1" style="stop-color:#BB6DF3"/>
		</linearGradient>
		<polygon class="st2" points="13.48,86.26 30.77,96.09 30.77,78.8 13.48,68.98 		"/>
		<polygon class="st3" points="30.77,96.09 35.12,93.64 35.12,76.35 30.77,78.8 		"/>
	</g>
</g>
<polygon class="st4" points="30.77,78.18 13.49,68.98 30.77,78.81 35.12,76.35 "/>
<g class="st0">
	<polygon class="st1" points="38.48,51.43 34.14,53.88 51.42,63.71 55.76,61.25 	"/>
	<g>
		<linearGradient id="SVGID_2_" gradientUnits="userSpaceOnUse" x1="66.6927" y1="17.3414" x2="29.4326" y2="116.4536">
			<stop  offset="0" style="stop-color:#00C7C5"/>
			<stop  offset="0.3301" style="stop-color:#2D9BE0"/>
			<stop  offset="0.6313" style="stop-color:#5277F7"/>
			<stop  offset="0.6913" style="stop-color:#5B76F7"/>
			<stop  offset="0.7887" style="stop-color:#7374F6"/>
			<stop  offset="0.9106" style="stop-color:#9A70F4"/>
			<stop  offset="1" style="stop-color:#BB6DF3"/>
		</linearGradient>
		<polygon class="st5" points="34.13,98.24 51.42,108.06 51.42,63.7 34.13,53.88 		"/>
		<polygon class="st3" points="51.41,108.06 55.76,105.61 55.76,61.25 51.41,63.7 		"/>
	</g>
</g>
<polygon class="st4" points="51.46,63.12 34.17,53.92 51.46,63.75 55.8,61.29 "/>
<g class="st0">
	<polygon class="st3" points="84.27,59.74 88.33,57.77 67.31,14.29 63.21,16.33 	"/>
	<polygon class="st3" points="71.93,120.19 75.99,118.22 75.99,50.64 71.93,52.62 	"/>
	<linearGradient id="SVGID_3_" gradientUnits="userSpaceOnUse" x1="78.1992" y1="21.6672" x2="40.939" y2="120.7796">
		<stop  offset="0" style="stop-color:#00C7C5"/>
		<stop  offset="0.3301" style="stop-color:#2D9BE0"/>
		<stop  offset="0.6313" style="stop-color:#5277F7"/>
		<stop  offset="0.6913" style="stop-color:#5B76F7"/>
		<stop  offset="0.7887" style="stop-color:#7374F6"/>
		<stop  offset="0.9106" style="stop-color:#9A70F4"/>
		<stop  offset="1" style="stop-color:#BB6DF3"/>
	</linearGradient>
	<polygon class="st6" points="54.58,42.6 54.58,110.18 71.93,120.19 71.93,52.62 84.27,59.74 63.26,16.27 42.24,35.47 	"/>
</g>
<polygon class="st4" points="63.26,16.27 84.67,59.29 84.27,59.74 "/>
</svg>
