<svg width="199" height="27" viewBox="0 0 199 27" fill="none" xmlns="http://www.w3.org/2000/svg">
<g clip-path="url(#clip0_6_13)">
<path d="M11.459 5.54468V26.1216H5.54467V5.54468H0V0.575012H17.0037V5.54468H11.459Z" fill="white"/>
<path d="M40.5789 3.69644C43.0022 6.03753 44.5629 9.4054 44.5629 13.3483C44.5629 16.7572 43.3307 20.2483 40.5789 22.918C38.1968 25.218 34.9932 26.6555 30.6807 26.6555C25.8753 26.6555 22.6306 24.7251 20.7003 22.918C18.236 20.618 16.7163 17.1679 16.7163 13.4304C16.7163 9.73398 18.3592 6.03753 20.6592 3.73752C22.3842 2.01251 25.5467 0 30.6396 0C34.6646 0 37.9914 1.23215 40.5789 3.69644ZM25.0539 7.59825C23.9449 8.66611 22.7949 10.5554 22.7949 13.3894C22.7949 15.7304 23.5753 17.6197 25.136 19.1394C26.7789 20.7001 28.6271 21.234 30.5985 21.234C33.186 21.234 35.0343 20.2894 36.2664 19.0572C37.2521 18.1126 38.4843 16.3054 38.4843 13.3483C38.4843 10.7197 37.4164 8.74826 36.2664 7.59825C34.9932 6.3661 32.9807 5.42146 30.6396 5.42146C28.4217 5.42146 26.4503 6.24289 25.0539 7.59825Z" fill="white"/>
<path d="M56.5148 0.575012C58.7326 0.575012 61.1969 0.86251 63.2094 2.66966C65.3862 4.60003 65.7148 7.1054 65.7148 8.87148C65.7148 12.0751 64.4827 13.8822 63.538 14.8679C61.5255 16.9215 58.8148 17.1269 57.0076 17.1269H53.3933V26.1216H47.479V0.575012C47.5201 0.575012 56.5148 0.575012 56.5148 0.575012ZM53.3933 12.3215H55.488C56.3094 12.3215 57.7058 12.2804 58.6505 11.3769C59.1844 10.8429 59.5951 9.93934 59.5951 8.83041C59.5951 7.76255 59.2255 6.85897 58.6505 6.32504C57.788 5.46254 56.5148 5.38039 55.3648 5.38039H53.3523L53.3933 12.3215Z" fill="white"/>
<path d="M65.7148 26.1216L69.822 0.575012H74.7095L81.0756 15.8537L87.4418 0.575012H92.3293L96.4364 26.1216H90.5221L88.5096 10.884L82.1024 26.1216H80.0489L73.6417 10.884L71.6292 26.1216H65.7148Z" fill="white"/>
<path d="M121.49 3.69644C123.913 6.03753 125.474 9.4054 125.474 13.3483C125.474 16.7572 124.242 20.2483 121.49 22.918C119.108 25.218 115.904 26.6555 111.592 26.6555C106.786 26.6555 103.542 24.7251 101.611 22.918C99.1471 20.618 97.6274 17.1679 97.6274 13.4304C97.6274 9.73398 99.2703 6.03753 101.57 3.73752C103.295 2.01251 106.458 0 111.551 0C115.576 0 118.903 1.23215 121.49 3.69644ZM105.965 7.59825C104.856 8.66611 103.706 10.5554 103.706 13.3894C103.706 15.7304 104.486 17.6197 106.047 19.1394C107.69 20.7001 109.538 21.234 111.51 21.234C114.097 21.234 115.945 20.2894 117.178 19.0572C118.163 18.1126 119.395 16.3054 119.395 13.3483C119.395 10.7197 118.328 8.74826 117.178 7.59825C115.904 6.3661 113.892 5.42146 111.551 5.42146C109.333 5.42146 107.361 6.24289 105.965 7.59825Z" fill="white"/>
<path d="M128.39 26.1216V0.575012H133.524L147.406 17.0447V0.575012H153.321V26.1216H148.187L134.304 9.5697V26.1216H128.39Z" fill="white"/>
<path d="M163.506 11.2126L172.254 0.575012H179.442L169.092 12.6911L180.222 26.1216H172.624L163.465 14.7858V26.1216H157.551V0.575012H163.465L163.506 11.2126Z" fill="white"/>
<path d="M194.557 6.81789C192.626 5.09288 190.983 4.96967 190.285 4.96967C189.464 4.96967 188.478 5.09289 187.78 5.83217C187.41 6.20182 187.123 6.77682 187.123 7.43397C187.123 8.05004 187.328 8.50183 187.698 8.87147C188.314 9.44648 189.176 9.69291 190.901 10.309L192.832 11.0483C193.94 11.459 195.337 12.034 196.323 13.0197C197.801 14.4572 198.212 16.2644 198.212 17.784C198.212 20.4126 197.308 22.7126 195.953 24.1091C193.694 26.4912 190.408 26.6966 188.724 26.6966C186.876 26.6966 185.274 26.4091 183.673 25.6287C182.358 24.9716 180.88 23.7805 179.935 22.8358L183.015 18.6055C183.673 19.2626 184.699 20.1251 185.398 20.5769C186.383 21.193 187.41 21.4805 188.601 21.4805C189.382 21.4805 190.449 21.3162 191.271 20.618C191.764 20.2072 192.174 19.509 192.174 18.5644C192.174 17.7019 191.846 17.1679 191.312 16.7162C190.614 16.1412 189.053 15.5662 188.314 15.2787L186.219 14.5394C185.028 14.1286 183.673 13.5947 182.646 12.5268C181.29 11.0893 181.126 9.32326 181.126 8.09112C181.126 5.83217 181.824 3.90181 183.344 2.34109C185.151 0.492862 187.287 0 189.669 0C191.435 0 194.269 0.287503 197.267 2.54644L194.557 6.81789Z" fill="white"/>
</g>
<defs>
<clipPath id="clip0_6_13">
<rect width="199" height="27" fill="white"/>
</clipPath>
</defs>
</svg>
