<svg width="199" height="115" viewBox="0 0 199 115" fill="none" xmlns="http://www.w3.org/2000/svg">
<path d="M11.4585 5.54448V26.1214H5.54418V5.54448H-0.000488281V0.574814H17.0032V5.54448H11.4585Z" fill="white"/>
<path d="M40.5784 3.69625C43.0017 6.03734 44.5624 9.40521 44.5624 13.3481C44.5624 16.757 43.3302 20.2481 40.5784 22.9178C38.1963 25.2178 34.9927 26.6553 30.6802 26.6553C25.8748 26.6553 22.6301 24.7249 20.6998 22.9178C18.2355 20.6178 16.7158 17.1678 16.7158 13.4302C16.7158 9.73379 18.3587 6.03734 20.6587 3.73733C22.3837 2.01232 25.5462 -0.000190735 30.6391 -0.000190735C34.6641 -0.000190735 37.9909 1.23196 40.5784 3.69625ZM25.0534 7.59806C23.9444 8.66592 22.7944 10.5552 22.7944 13.3892C22.7944 15.7302 23.5748 17.6195 25.1355 19.1392C26.7784 20.6999 28.6266 21.2338 30.598 21.2338C33.1855 21.2338 35.0338 20.2892 36.2659 19.0571C37.2516 18.1124 38.4838 16.3052 38.4838 13.3481C38.4838 10.7195 37.4159 8.74807 36.2659 7.59806C34.9927 6.36591 32.9802 5.42127 30.6391 5.42127C28.4212 5.42127 26.4498 6.2427 25.0534 7.59806Z" fill="white"/>
<path d="M56.5143 0.574814C58.7321 0.574814 61.1965 0.862312 63.209 2.66946C65.3858 4.59983 65.7143 7.1052 65.7143 8.87128C65.7143 12.0749 64.4822 13.882 63.5375 14.8677C61.525 16.9213 58.8143 17.1267 57.0071 17.1267H53.3928V26.1214H47.4785V0.574814C47.5196 0.574814 56.5143 0.574814 56.5143 0.574814ZM53.3928 12.3213H55.4875C56.3089 12.3213 57.7054 12.2802 58.65 11.3767C59.1839 10.8427 59.5946 9.93914 59.5946 8.83021C59.5946 7.76235 59.225 6.85877 58.65 6.32484C57.7875 5.46234 56.5143 5.38019 55.3643 5.38019H53.3518L53.3928 12.3213Z" fill="white"/>
<path d="M65.7144 26.1214L69.8215 0.574814H74.7091L81.0752 15.8535L87.4413 0.574814H92.3288L96.4359 26.1214H90.5216L88.5091 10.8838L82.1019 26.1214H80.0484L73.6412 10.8838L71.6287 26.1214H65.7144Z" fill="white"/>
<path d="M121.49 3.69625C123.913 6.03734 125.474 9.40521 125.474 13.3481C125.474 16.757 124.241 20.2481 121.49 22.9178C119.107 25.2178 115.904 26.6553 111.591 26.6553C106.786 26.6553 103.541 24.7249 101.611 22.9178C99.1466 20.6178 97.627 17.1678 97.627 13.4302C97.627 9.73379 99.2698 6.03734 101.57 3.73733C103.295 2.01232 106.457 -0.000190735 111.55 -0.000190735C115.575 -0.000190735 118.902 1.23196 121.49 3.69625ZM105.964 7.59806C104.856 8.66592 103.706 10.5552 103.706 13.3892C103.706 15.7302 104.486 17.6195 106.047 19.1392C107.69 20.6999 109.538 21.2338 111.509 21.2338C114.097 21.2338 115.945 20.2892 117.177 19.0571C118.163 18.1124 119.395 16.3052 119.395 13.3481C119.395 10.7195 118.327 8.74807 117.177 7.59806C115.904 6.36591 113.891 5.42127 111.55 5.42127C109.332 5.42127 107.361 6.2427 105.964 7.59806Z" fill="white"/>
<path d="M128.39 26.1214V0.574814H133.524L147.406 17.0445V0.574814H153.32V26.1214H148.186L134.304 9.5695V26.1214H128.39Z" fill="white"/>
<path d="M163.506 11.2124L172.254 0.574814H179.441L169.091 12.6909L180.222 26.1214H172.624L163.465 14.7856V26.1214H157.55V0.574814H163.465L163.506 11.2124Z" fill="white"/>
<path d="M194.556 6.8177C192.626 5.09269 190.983 4.96948 190.285 4.96948C189.463 4.96948 188.477 5.09269 187.779 5.83198C187.41 6.20163 187.122 6.77663 187.122 7.43378C187.122 8.04985 187.327 8.50164 187.697 8.87128C188.313 9.44629 189.176 9.69272 190.901 10.3088L192.831 11.0481C193.94 11.4588 195.336 12.0338 196.322 13.0195C197.801 14.457 198.211 16.2642 198.211 17.7838C198.211 20.4124 197.308 22.7124 195.953 24.1089C193.694 26.491 190.408 26.6964 188.724 26.6964C186.876 26.6964 185.274 26.4089 183.672 25.6285C182.358 24.9714 180.879 23.7803 179.935 22.8356L183.015 18.6053C183.672 19.2624 184.699 20.1249 185.397 20.5767C186.383 21.1928 187.41 21.4803 188.601 21.4803C189.381 21.4803 190.449 21.316 191.27 20.6178C191.763 20.2071 192.174 19.5088 192.174 18.5642C192.174 17.7017 191.845 17.1678 191.311 16.716C190.613 16.141 189.052 15.566 188.313 15.2785L186.219 14.5392C185.027 14.1285 183.672 13.5945 182.645 12.5267C181.29 11.0891 181.126 9.32307 181.126 8.09092C181.126 5.83198 181.824 3.90162 183.344 2.34089C185.151 0.492671 187.286 -0.000190735 189.669 -0.000190735C191.435 -0.000190735 194.269 0.287313 197.267 2.54625L194.556 6.8177Z" fill="white"/>
<path d="M197.998 57.4249C197.998 56.9012 197.726 56.6491 197.183 56.6491H186.357C185.937 56.6491 185.528 56.7852 185.193 57.037C184.74 57.4104 184.324 57.826 183.951 58.2783L175.395 69.004L170.137 58.3753C169.923 57.9594 169.684 57.5578 169.419 57.1728C169.305 57.0275 169.156 56.9125 168.987 56.8381C168.818 56.7637 168.633 56.7321 168.449 56.7461H150.987L152.384 50.074C152.572 48.7299 153.085 47.4518 153.878 46.3501C154.618 45.7808 155.549 45.517 156.478 45.6131H159.097L160.727 37.0403H156.07C153.999 36.9542 151.925 37.0061 149.862 37.1955C148.142 37.4247 146.489 38.0128 145.011 38.9217C143.487 39.9599 142.235 41.3505 141.363 42.9753C140.234 45.16 139.486 47.5213 139.152 49.9577L137.968 55.5823L134.359 75.3462L129.606 101.259C129.478 102 129.303 102.732 129.082 103.45C128.935 103.928 128.647 104.35 128.256 104.662C127.864 104.973 127.388 105.159 126.889 105.196H122.873L121.146 114.622H126.327C128.153 114.622 129.977 114.473 131.779 114.176C133.523 113.922 135.191 113.293 136.668 112.333C138.188 111.293 139.444 109.911 140.335 108.299C141.514 106.09 142.308 103.696 142.683 101.22L149.221 66.1334H157.254C158.302 66.0798 159.338 66.3729 160.203 66.9674C160.455 67.2305 160.682 67.5161 160.882 67.8208L166.179 78.1004L148.096 99.6293C147.891 99.867 147.774 100.169 147.766 100.483C147.766 100.948 148.018 101.181 148.503 101.181H159.33C159.744 101.184 160.15 101.063 160.494 100.832C160.961 100.49 161.379 100.086 161.736 99.6293L171.437 87.5072L177.257 99.5517C177.45 99.9945 177.698 100.411 177.994 100.793C178.113 100.931 178.263 101.039 178.432 101.106C178.601 101.174 178.784 101.199 178.965 101.181H190.606C190.751 101.187 190.895 101.159 191.026 101.098C191.158 101.037 191.273 100.946 191.362 100.832C191.554 100.604 191.657 100.315 191.653 100.017C191.678 99.863 191.678 99.7059 191.653 99.5517L180.633 78.6435L197.668 58.3753C197.781 58.2648 197.869 58.1315 197.926 57.9843C197.982 57.8371 198.007 57.6794 197.998 57.5219" fill="white"/>
<path d="M29.7824 70.9823C29.9097 68.9913 29.6315 66.9952 28.9645 65.1149C28.2975 63.2346 27.2556 61.5092 25.902 60.0433C24.3887 58.6776 22.616 57.6303 20.6893 56.9639C18.7627 56.2974 16.7216 56.0255 14.6876 56.1642C12.3719 56.1565 10.0582 56.299 7.76105 56.5909C5.80416 56.8486 3.8615 57.2046 1.94044 57.6576C1.3498 57.7509 0.794281 57.9985 0.33007 58.3753C0.110669 58.6504 -0.00596499 58.9933 0.000235032 59.345V99.959C0.00274135 100.115 0.0386875 100.268 0.105638 100.409C0.172588 100.549 0.268978 100.674 0.388276 100.774C0.637624 100.965 0.947263 101.062 1.26137 101.045H8.53713C8.69541 101.046 8.85229 101.016 8.99878 100.956C9.14527 100.896 9.2785 100.808 9.39082 100.696C9.58111 100.497 9.69157 100.234 9.70125 99.959V89.9316C10.5937 90.048 11.4862 90.1449 12.3981 90.2225C13.31 90.3001 14.0473 90.3389 14.6488 90.3389C19.7321 90.3389 23.5349 89.0006 26.0184 86.3434C28.6221 83.3505 29.9581 79.462 29.7436 75.5014L29.7824 70.9823ZM20.0813 75.5402C20.0893 76.4772 20.0048 77.4127 19.8291 78.3331C19.703 79.131 19.4194 79.8958 18.9948 80.583C18.5913 81.2195 18.0299 81.7407 17.3651 82.0958C16.5401 82.4807 15.6363 82.6667 14.7264 82.6389C14.0085 82.6389 13.1742 82.6389 12.2623 82.5226L9.70125 82.2898V64.1939C10.2639 64.1939 10.9818 64.0581 11.8549 63.9999C12.728 63.9418 13.6399 63.9999 14.6488 63.9999C15.5572 63.9661 16.4609 64.1455 17.2875 64.5236C17.9544 64.8581 18.5178 65.3676 18.9172 65.9977C19.3353 66.674 19.6186 67.4248 19.7515 68.2087C19.9299 69.1419 20.0144 70.0905 20.0037 71.0405L20.0813 75.5402ZM53.0648 62.875V57.3279C53.0612 57.1744 53.0267 57.0231 52.9634 56.8831C52.9 56.7432 52.8092 56.6174 52.6962 56.5133C52.5839 56.4018 52.4506 56.3136 52.3041 56.2537C52.1576 56.1938 52.0008 56.1634 51.8425 56.1642C50.3833 56.1644 48.9343 56.4069 47.5546 56.8818C46.1524 57.3478 44.8401 58.0496 43.6742 58.9571V57.7934C43.6754 57.6391 43.643 57.4863 43.5794 57.3456C43.5158 57.205 43.4223 57.0798 43.3056 56.9788C43.1969 56.8679 43.067 56.7799 42.9237 56.7199C42.7805 56.66 42.6266 56.6293 42.4713 56.6297H35.3313C35.1731 56.6289 35.0162 56.6593 34.8697 56.7192C34.7232 56.7791 34.59 56.8673 34.4777 56.9788C34.3688 57.0809 34.2817 57.204 34.2217 57.3407C34.1616 57.4774 34.1299 57.6248 34.1284 57.774V88.6127C34.1281 88.7716 34.1627 88.9287 34.2298 89.0728C34.2968 89.2169 34.3947 89.3445 34.5165 89.4467C34.6287 89.565 34.7643 89.6587 34.9145 89.7221C35.0647 89.7856 35.2265 89.8172 35.3896 89.8152H42.6847C42.8422 89.8179 42.9984 89.7863 43.1424 89.7227C43.2865 89.6591 43.415 89.5649 43.519 89.4467C43.6344 89.3404 43.7266 89.2115 43.79 89.068C43.8534 88.9245 43.8867 88.7696 43.8877 88.6127V65.9977C45.0478 65.4181 46.2551 64.938 47.4964 64.5624C48.8444 64.1658 50.2434 63.9698 51.6485 63.9805H52.1335C52.2643 63.9843 52.3938 63.9541 52.5094 63.893C52.625 63.8318 52.7228 63.7417 52.7932 63.6314C52.9511 63.4102 53.039 63.1467 53.0454 62.875M66.394 46.3113C66.3881 46.1523 66.3468 45.9966 66.2729 45.8557C66.1991 45.7147 66.0946 45.5921 65.9672 45.4967C65.8598 45.384 65.7303 45.2948 65.5867 45.2347C65.4431 45.1746 65.2885 45.1449 65.1329 45.1476H57.3721C57.2138 45.1468 57.0569 45.1772 56.9104 45.2371C56.7639 45.297 56.6307 45.3852 56.5184 45.4967C56.408 45.6018 56.3202 45.7282 56.2601 45.8682C56.2001 46.0082 56.1691 46.159 56.1691 46.3113V51.7033C56.1691 51.8556 56.2001 52.0064 56.2601 52.1464C56.3202 52.2864 56.408 52.4128 56.5184 52.5179C56.6307 52.6293 56.7639 52.7176 56.9104 52.7775C57.0569 52.8374 57.2138 52.8678 57.3721 52.867H65.1329C65.2857 52.8747 65.4386 52.8511 65.582 52.7978C65.7255 52.7444 65.8565 52.6624 65.9672 52.5567C66.0839 52.4556 66.1773 52.3305 66.241 52.1898C66.3046 52.0492 66.337 51.8964 66.3358 51.742L66.394 46.3113ZM66.1612 57.774C66.1561 57.6235 66.1208 57.4756 66.0575 57.339C65.9942 57.2024 65.9041 57.0799 65.7926 56.9788C65.6838 56.8679 65.554 56.7799 65.4107 56.7199C65.2674 56.66 65.1136 56.6293 64.9583 56.6297H57.5855C57.4302 56.6293 57.2763 56.66 57.133 56.7199C56.9898 56.7799 56.8599 56.8679 56.7512 56.9788C56.6359 57.0769 56.5433 57.1987 56.4797 57.336C56.416 57.4733 56.3829 57.6227 56.3826 57.774V88.6709C56.3816 88.8224 56.4141 88.9723 56.4779 89.1097C56.5416 89.2472 56.6349 89.3689 56.7512 89.4661C56.8599 89.577 56.9898 89.665 57.133 89.725C57.2763 89.7849 57.4302 89.8156 57.5855 89.8152H64.9389C65.0984 89.8082 65.2549 89.7684 65.3984 89.6983C65.5419 89.6282 65.6695 89.5294 65.7732 89.4079C65.8865 89.3082 65.9778 89.186 66.0413 89.0491C66.1047 88.9122 66.139 88.7636 66.1418 88.6127L66.1612 57.774ZM93.5763 88.1472V82.988C93.5832 82.8507 93.5568 82.7137 93.4994 82.5888C93.442 82.4638 93.3552 82.3546 93.2464 82.2704C93.0158 82.0859 92.7268 81.9896 92.4315 81.9989H92.3151L89.0944 82.2898C88.0596 82.3674 86.6821 82.4062 84.9618 82.4062C84.3019 82.4157 83.6455 82.3107 83.0216 82.0958C82.4117 81.8783 81.8743 81.4956 81.4694 80.9903C80.9748 80.3719 80.6117 79.6591 80.4023 78.8956C80.1233 77.8458 79.9926 76.762 80.0142 75.676V70.8271C79.9926 69.7411 80.1233 68.6573 80.4023 67.6075C80.6175 66.8424 80.9873 66.1295 81.4888 65.5128C81.8937 65.0075 82.431 64.6248 83.041 64.4072C83.6672 64.2018 84.3221 64.0971 84.9812 64.0969C86.7144 64.0969 88.092 64.1357 89.1138 64.2133L92.3345 64.5042H92.451C92.7462 64.5135 93.0352 64.4172 93.2658 64.2327C93.3746 64.1485 93.4614 64.0393 93.5188 63.9143C93.5762 63.7894 93.6026 63.6524 93.5957 63.5151V58.3753C93.613 58.2144 93.596 58.0518 93.5459 57.898C93.4957 57.7442 93.4135 57.6028 93.3046 57.4831C93.0152 57.2738 92.6845 57.1283 92.3345 57.0564C91.4809 56.8624 90.3943 56.6685 89.0556 56.4745C87.4864 56.2662 85.9044 56.169 84.3215 56.1836C82.456 56.0896 80.5908 56.3727 78.8373 57.0159C77.0838 57.6591 75.478 58.6491 74.116 59.9269C72.7587 61.3825 71.7141 63.1006 71.0467 64.9753C70.3794 66.8501 70.1033 68.8416 70.2356 70.8271V75.676C70.1033 77.6615 70.3794 79.653 71.0467 81.5277C71.7141 83.4025 72.7587 85.1206 74.116 86.5762C75.4716 87.8587 77.073 88.8533 78.8237 89.5C80.5744 90.1468 82.438 90.4321 84.3021 90.3389C85.885 90.3535 87.467 90.2563 89.0362 90.048C90.3749 89.854 91.4615 89.6601 92.3151 89.4661C92.6651 89.3942 92.9958 89.2487 93.2852 89.0394C93.3941 88.9197 93.4763 88.7783 93.5265 88.6245C93.5766 88.4707 93.5936 88.308 93.5763 88.1472ZM125.842 71.3896C125.857 69.3278 125.536 67.2773 124.891 65.3188C124.312 63.5354 123.36 61.8957 122.097 60.5088C120.804 59.1122 119.212 58.025 117.441 57.3279C115.379 56.5146 113.176 56.119 110.96 56.1642C108.773 56.1246 106.596 56.4861 104.538 57.2309C102.738 57.8747 101.106 58.9149 99.7628 60.2747C98.4194 61.6344 97.3992 63.2788 96.7776 65.0861C96.0789 67.113 95.7375 69.2459 95.7687 71.3896V75.4626C95.666 77.8655 96.0898 80.2618 97.0104 82.4838C97.7906 84.2783 98.9879 85.8608 100.503 87.0999C101.932 88.2621 103.592 89.1082 105.373 89.5825C107.134 90.0808 108.955 90.3353 110.786 90.3389C113.016 90.3599 115.245 90.2433 117.46 89.9898C119.367 89.7483 121.258 89.3986 123.126 88.9424C123.519 88.8941 123.883 88.7087 124.154 88.4188C124.328 88.0985 124.409 87.7355 124.387 87.3714V82.9299C124.387 82.3092 124.018 81.9989 123.242 81.9989H123.067C122.466 81.9989 121.709 82.154 120.778 82.1928C119.847 82.2316 118.838 82.3092 117.809 82.348L114.589 82.4644H111.504C110.531 82.5019 109.562 82.3436 108.652 81.9989C107.903 81.7038 107.237 81.2312 106.711 80.6218C106.233 80.0565 105.883 79.395 105.683 78.6823C105.489 77.9085 105.391 77.1137 105.392 76.316V76.1996H124.561C125.415 76.1996 125.842 75.7342 125.842 74.8226V71.3896ZM116.412 70.3616H105.373V70.1289C105.243 68.391 105.784 66.6694 106.886 65.3188C107.397 64.7724 108.021 64.3436 108.715 64.0623C109.408 63.781 110.155 63.6538 110.902 63.6896C111.641 63.6494 112.38 63.7708 113.067 64.0455C113.754 64.3202 114.372 64.7415 114.88 65.28C115.946 66.6611 116.458 68.3902 116.315 70.1289L116.412 70.3616Z" fill="white"/>
</svg>
